<svg xmlns="http://www.w3.org/2000/svg" xmlns:xlink="http://www.w3.org/1999/xlink" viewBox="0 0 960 684" width="100%" role="img" aria-label="Karte der Museen" class="fundorte-karte">
<style>  .fundorte-karte { --mk-accent: #6d28d9; --mk-blue: #2563eb;
                     --mk-halo: #fbf7ee; }
  @media (prefers-color-scheme: dark) {
    .fundorte-karte { --mk-accent: #b69cff; --mk-blue: #7da2ff;
                       --mk-halo: #1b1a17; }
  }
  .land  { fill: #C19F5A; fill-opacity: .10; }
  .coast { fill: none; stroke: #C19F5A; stroke-width: 1;
           stroke-linejoin: round; stroke-linecap: round; }
  /* Zwei Ebenen: unten alle Punkte statisch (.mk-grp), darueber je Punkt eine
     im Ruhezustand unsichtbare Deck-Gruppe (.tp) aus Marker-Kopie + Label.
     Beim Hovern wird die Deck-Gruppe sichtbar und liegt damit zwangslaeufig
     UEBER allen anderen Punkten (SVG malt in Dokumentreihenfolge, spaeter =
     obenauf). visibility statt nur opacity: unsichtbare Deck-Gruppen sind
     fuer Maus-Events durchlaessig (SVG-Default pointer-events:visiblePainted),
     sichtbare fangen sie — so haelt der Cursor auf Punkt ODER Label den
     Hover-Zustand, und ein Klick aufs Label folgt demselben Link. Beim
     Ausblenden bleibt die Gruppe bis zum Ende der Transition ansprechbar,
     sodass der Hover beim Uebergang Punkt -> Label nicht abreisst.
     Aktiv-Zustand ueber --on/--fc, damit Masse/Farben nur einmal definiert
     sind; die Aktivierungs-Selektoren (#mk_i:hover ~ #tp_i, .tp:hover) werden
     je Karte generiert (zweiter style-Block am SVG-Ende). */
  .mk-grp, .tp { cursor: pointer; --on: 0; --fc: var(--rt-blue, var(--mk-blue)); }
  .tp       { visibility: hidden; opacity: 0;
              transition: opacity .16s ease, visibility .16s; }
  .mk, .mk-disc { transform-box: fill-box; transform-origin: center;
              transition: transform .16s ease; }
  .mk       { transform: scale(calc(1 + 0.2 * var(--on))); }
  .mk-disc  { transform: scale(calc(1 + 1 * var(--on))); }
  .mk-disc-fill { fill: var(--fc); fill-opacity: calc(0.3
                + 0.25 * var(--on));
              transition: fill .16s ease, fill-opacity .16s ease; }
  .mk-ring  { fill: none; stroke: var(--fc); stroke-width: .6;
              transition: stroke .16s ease; }
  .mk-core  { fill: var(--fc); transition: fill .16s ease; }
  .mk-lbl   { font: 700 15px system-ui, sans-serif; fill: var(--md-accent-fg-color, var(--mk-accent));
              paint-order: stroke; stroke: var(--md-default-bg-color, var(--mk-halo)); stroke-width: 2px;
              stroke-linejoin: round; }</style>
<defs><filter id="rt-glow" x="-15%" y="-15%" width="130%" height="130%"
        color-interpolation-filters="sRGB">
  <feGaussianBlur in="SourceGraphic" stdDeviation="2.2" result="b"/>
  <feMerge><feMergeNode in="b"/><feMergeNode in="b"/>
    <feMergeNode in="SourceGraphic"/></feMerge>
</filter></defs>
<path class="land" d="M618.2 470.5L621.7 470.8L625.2 472.5L628.7 475.4L629.5 477.0L627.6 477.3L624.6 479.4L620.7 483.3L616.9 485.3L613.4 485.6L610.5 488.1L608.3 492.8L606.5 495.5L604.9 496.1L604.1 495.9L604.0 494.7L604.9 492.6L606.9 489.6L606.4 487.1L603.4 485.0L602.4 482.8L603.4 480.5L603.3 478.3L602.1 476.2L603.5 475.0L607.5 474.8L609.8 474.0L610.4 472.6L612.2 471.5L615.0 470.8L616.5 470.4 Z"/>
<path class="land" d="M544.8 501.2L542.2 503.7L540.8 506.9L540.5 511.1L541.0 513.9L542.2 515.5L540.6 518.4L536.3 522.8L533.5 526.6L532.2 530.0L530.5 532.2L528.6 533.3L528.3 532.3L529.7 529.3L529.5 526.1L527.7 522.7L527.0 518.3L527.3 513.0L529.4 507.9L533.4 502.8L536.7 500.2L539.4 500.2L541.2 499.4L542.1 497.8L543.5 497.8L545.2 499.3L546.1 500.0 Z"/>
<path class="land" d="M416.7 575.6L416.4 577.9L415.2 579.7L413.0 580.9L411.3 582.5L410.3 584.7L410.6 586.4L412.3 587.8L413.3 589.4L413.5 591.2L412.1 592.9L408.9 594.6L407.1 598.7L406.7 605.1L405.5 608.7L403.7 609.5L401.7 606.3L399.6 599.1L396.8 595.3L393.1 595.0L390.7 593.8L389.6 591.6L388.7 588.2L388.3 583.4L387.3 579.9L385.9 577.8L386.9 576.5L390.3 575.9L392.8 574.0L394.3 570.6L395.8 568.8L397.3 568.5L398.4 568.9L399.1 569.7L399.4 571.7L399.4 574.9L400.0 576.8L401.3 577.3L402.5 575.8L403.6 572.3L403.8 569.9L403.2 568.7L404.6 566.7L408.1 564.0L411.6 563.1L415.2 564.1L416.9 567.1L416.8 572.0L416.8 574.5 Z"/>
<path class="land" d="M379.4 583.2L381.1 588.3L381.8 592.4L381.5 595.7L380.5 598.1L378.9 599.5L375.0 599.2L368.7 597.3L364.9 594.6L363.6 591.2L362.9 588.2L362.9 585.4L366.9 583.2L374.6 581.5L378.5 580.7 Z"/>
<path class="land" d="M104.7 476.3L103.7 479.9L99.3 485.2L91.6 492.0L87.5 496.4L87.0 498.4L87.7 499.7L89.4 500.4L89.0 502.9L86.2 507.4L88.5 508.4L95.7 506.0L106.0 504.8L119.2 504.9L126.8 505.8L128.9 507.5L130.3 509.6L131.2 512.2L127.6 521.9L119.5 538.5L111.9 548.6L104.8 552.1L103.3 553.6L107.5 553.0L110.8 553.4L113.1 554.8L114.2 556.1L113.9 557.3L110.4 559.9L103.6 563.9L98.0 565.3L93.8 564.1L95.4 564.8L102.7 567.3L108.6 567.9L113.1 566.6L117.6 567.0L122.1 569.2L126.8 573.3L131.6 579.1L136.2 589.7L140.4 604.7L145.3 613.9L150.9 617.4L156.6 622.4L162.4 628.9L164.7 633.0L163.5 634.7L164.5 639.0L167.7 645.9L167.4 648.3L163.5 646.1L159.7 645.2L155.8 645.4L155.7 645.8L159.3 646.3L164.0 649.6L169.6 655.5L172.8 660.0L173.6 662.9L172.5 666.4L169.4 670.6L169.1 673.5L171.4 675.1L173.9 674.6L176.7 672.0L180.6 670.8L185.5 670.9L190.5 672.3L198.1 676.2L85.5 676.2L85.5 673.4L82.6 673.3L76.8 675.1L76.0 673.2L80.1 667.6L84.4 663.5L89.0 660.9L93.7 659.2L98.5 658.5L102.0 658.8L104.3 660.3L105.1 659.9L104.4 657.6L104.6 656.3L105.6 655.7L106.8 656.5L108.3 658.5L109.8 659.5L111.5 659.4L111.5 659.0L109.9 658.3L108.3 656.7L106.8 653.9L106.8 650.7L108.2 647.1L108.3 644.3L107.1 642.4L107.2 640.5L108.6 638.5L109.5 635.7L109.8 632.0L108.5 630.6L105.6 631.5L102.1 629.0L98.1 623.2L95.9 619.5L95.7 617.8L96.2 615.2L97.5 611.6L100.3 608.3L104.5 605.2L104.1 603.7L99.0 603.7L94.4 605.2L90.4 608.1L86.9 609.0L83.9 607.8L81.1 608.0L78.5 609.6L75.7 609.6L72.7 608.1L70.8 608.7L69.8 611.3L68.3 611.2L66.0 608.4L64.7 605.8L64.4 603.6L64.8 602.4L65.9 602.4L68.4 597.9L72.2 589.0L73.0 582.8L70.8 579.3L69.9 576.0L70.1 572.9L70.5 570.8L71.1 569.6L72.6 569.0L74.8 569.1L74.6 568.1L72.0 566.1L70.9 564.1L71.4 562.2L69.5 563.7L65.2 568.5L63.1 569.3L63.2 566.1L63.9 563.4L65.3 561.0L64.3 561.7L61.1 565.3L59.6 569.1L59.8 573.0L59.1 578.4L57.4 585.1L55.7 588.9L54.0 589.9L53.3 587.8L53.8 582.7L55.0 578.6L56.7 575.5L57.0 573.8L55.8 573.6L55.3 571.4L55.4 567.1L57.6 558.7L61.8 546.0L61.6 541.7L57.0 545.8L52.3 546.2L47.5 542.8L47.1 539.9L51.1 537.5L52.5 535.8L51.2 534.9L51.8 532.6L54.5 529.0L56.0 525.9L56.3 523.6L55.3 521.0L53.0 518.3L51.8 516.2L51.7 514.5L52.8 513.0L55.0 511.5L55.2 509.7L53.6 507.4L53.5 504.3L54.9 500.3L57.8 498.3L62.3 498.3L63.2 496.6L60.7 493.0L59.8 489.7L60.5 486.5L62.5 484.7L65.8 484.2L67.0 482.9L66.2 480.5L66.2 477.7L66.9 474.2L68.8 473.0L71.8 474.1L74.4 474.1L76.6 473.0L78.0 472.9L78.6 474.0L84.7 473.2L96.4 470.6L103.2 469.4L105.3 469.7L106.0 471.0L105.5 473.3L105.2 474.4 Z"/>
<path class="land" d="M25.5 598.9L27.8 596.7L33.0 595.3L41.1 594.7L47.2 597.9L51.3 604.8L52.6 609.8L51.0 612.8L51.6 614.2L54.6 613.8L56.5 614.5L57.4 616.4L57.9 618.3L58.0 620.2L57.1 620.3L55.2 618.4L54.4 618.9L54.5 621.8L55.1 623.3L56.0 623.5L56.3 624.4L55.8 626.1L54.5 627.3L52.3 627.9L50.2 629.8L48.3 632.9L46.4 634.2L44.4 633.5L43.7 633.8L44.3 635.0L43.7 635.9L41.8 636.4L41.9 640.1L43.9 647.0L44.9 652.2L44.8 655.7L45.3 659.8L46.3 664.3L46.9 668.0L47.1 670.7L46.7 673.1L45.1 676.2L8.0 676.2L8.0 595.2L13.5 593.9L15.7 594.6L16.4 596.7L16.3 599.1L15.3 601.7L15.7 602.3L17.5 601.0L18.2 598.6L17.8 595.1L18.7 592.9L20.8 592.0L21.6 591.0L20.9 590.0L20.9 589.4L21.5 589.3L23.5 590.4L26.9 592.6L27.6 594.6L25.5 596.3L24.4 597.9L24.4 599.3L24.3 600.0 Z"/>
<path class="land" d="M620.7 463.8L616.9 466.4L614.3 466.1L613.0 462.8L610.6 460.3L607.1 458.8L607.3 457.7L611.4 457.1L614.3 455.8L616.2 453.6L618.4 453.4L621.0 455.3L622.8 457.7L623.8 460.7L623.8 462.3L623.0 462.4L622.6 462.5 Z"/>
<path class="land" d="M879.0 193.6L879.4 196.0L879.2 198.4L878.4 200.8L876.8 200.0L874.3 195.8L874.5 193.4L877.4 192.7L878.8 192.3 Z"/>
<path class="land" d="M78.3 631.0L76.3 633.1L74.4 634.1L72.7 633.9L72.3 632.4L73.2 629.9L75.0 627.0L77.7 623.9L79.5 623.5L80.3 625.9L80.4 627.8L79.7 629.2L79.3 629.9 Z"/>
<path class="land" d="M49.5 555.0L44.2 556.0L42.2 555.8L43.4 554.7L44.3 552.9L44.8 550.5L44.1 548.6L42.3 547.2L42.5 545.8L44.6 544.4L47.4 545.1L50.8 547.9L52.4 550.7L52.2 553.3L52.2 554.6 Z"/>
<path class="land" d="M45.4 571.8L45.8 576.6L44.9 579.5L42.8 580.3L41.7 579.3L41.7 576.2L40.8 575.4L38.9 576.9L38.4 576.2L39.1 573.4L40.9 571.4L43.8 570.0L45.2 569.4 Z"/>
<path class="land" d="M47.8 572.8L46.8 571.4L47.1 570.0L48.7 568.5L49.4 567.2L49.1 565.9L50.0 564.6L52.1 563.3L52.0 565.4L49.6 570.8L48.3 573.5 Z"/>
<path class="land" d="M141.7 396.4L143.2 398.8L144.5 399.7L145.6 399.2L144.8 404.6L142.4 415.9L140.9 421.2L140.3 420.5L140.4 417.8L141.0 413.0L139.5 409.3L135.8 406.7L135.4 404.9L138.2 403.9L139.3 402.0L138.6 399.3L137.6 397.7L136.4 397.1L136.8 395.7L138.8 393.4L140.2 393.0L140.7 394.4L141.0 395.1 Z"/>
<path class="land" d="M84.3 659.1L85.8 659.4L86.3 659.8L86.0 660.5L84.4 661.9L81.5 664.1L79.2 664.1L77.4 662.0L76.4 659.9L76.3 657.8L77.5 656.5L80.0 656.0L81.8 656.6L83.0 658.2L83.6 659.0 Z"/>
<path class="land" d="M107.7 455.4L110.6 456.8L111.6 458.2L110.6 459.4L108.4 459.7L105.1 459.1L103.2 458.0L102.8 456.6L102.0 456.0L101.0 456.2L100.7 455.0L101.0 452.2L102.5 451.1L105.1 451.7L106.3 452.7L106.3 454.0L106.2 454.7 Z"/>
<path class="land" d="M24.8 329.5L26.0 330.9L26.0 331.9L24.9 332.6L23.1 331.9L20.7 329.8L20.6 328.7L23.0 328.7L24.2 328.8 Z"/>
<path class="land" d="M35.1 326.4L34.8 329.3L33.8 330.4L32.0 329.9L31.6 331.4L32.8 334.9L31.9 335.2L29.0 332.2L26.8 328.6L25.2 324.6L25.5 322.2L27.6 321.5L30.3 322.2L33.6 324.0L35.2 325.0 Z"/>
<path class="land" d="M112.3 448.9L111.5 449.3L109.9 448.0L107.5 444.9L106.7 443.1L107.5 442.6L109.1 443.9L111.5 447.1L112.7 448.6 Z"/>
<path class="land" d="M43.2 481.8L41.9 485.1L40.1 487.7L37.9 489.5L37.5 490.6L39.0 490.9L39.6 491.6L39.4 492.6L36.7 495.6L31.4 500.7L28.1 502.6L26.8 501.4L27.3 499.8L29.6 497.8L29.7 496.0L27.7 494.5L27.1 493.3L27.8 492.4L27.7 491.6L26.6 490.7L26.4 489.1L27.0 486.7L28.8 485.8L31.8 486.5L33.1 485.7L32.6 483.6L35.0 480.6L40.3 476.8L43.2 476.2L43.6 478.9L43.8 480.2 Z"/>
<path class="land" d="M44.9 514.1L45.0 517.6L47.4 519.9L52.0 521.1L52.9 523.5L50.1 527.3L48.4 529.2L47.8 529.0L47.4 527.6L47.2 524.9L45.6 523.5L42.8 523.5L40.7 522.3L39.5 520.0L37.4 517.8L34.2 515.7L34.6 512.6L38.6 508.4L41.2 506.5L42.3 506.8L43.3 508.3L44.4 511.0L44.9 512.3 Z"/>
<path class="land" d="M24.3 506.2L25.5 507.3L25.6 508.7L24.7 510.4L22.6 510.6L19.3 509.4L19.2 508.0L22.3 506.5L23.8 505.7 Z"/>
<path class="land" d="M565.5 403.3L568.0 404.7L569.0 406.3L568.6 408.1L567.6 409.1L566.1 409.4L565.3 410.4L565.2 412.1L563.7 412.9L560.8 412.8L559.1 411.1L558.5 407.7L559.0 406.5L560.6 407.4L561.3 406.2L561.1 402.8L561.8 401.5L563.4 402.3L564.3 402.7 Z"/>
<path class="land" d="M589.7 281.0L591.7 280.9L591.9 281.9L590.2 283.9L588.5 283.6L586.8 280.8L586.7 279.8L588.0 280.6L588.7 281.0 Z"/>
<path class="land" d="M495.0 556.9L494.0 557.8L493.4 557.6L493.1 556.4L493.0 553.5L493.1 548.8L496.1 539.7L501.9 526.1L505.4 519.2L506.6 519.2L504.3 528.6L498.4 547.3L495.5 556.5 Z"/>
<path class="land" d="M464.8 600.5L460.8 599.1L459.0 597.3L459.3 594.9L459.7 593.2L460.2 592.2L462.3 593.0L465.9 595.6L467.5 598.0L467.1 600.2L466.8 601.2 Z"/>
<path class="land" d="M439.4 624.1L439.4 625.8L438.3 626.2L436.0 625.2L434.3 625.5L433.2 627.1L431.6 626.9L429.6 624.8L428.6 622.3L428.8 619.2L430.1 616.4L432.5 613.7L434.9 613.6L437.2 616.0L438.0 618.0L437.3 619.6L437.5 621.1L438.8 622.5L439.4 623.2 Z"/>
<path class="land" d="M414.2 603.6L410.0 604.5L408.6 603.6L410.1 601.1L412.3 600.6L415.0 602.3L416.4 603.2 Z"/>
<path class="land" d="M394.7 606.5L398.4 607.9L400.4 609.7L400.7 611.9L399.3 613.5L396.2 614.3L392.6 613.5L388.4 611.1L386.4 608.4L386.6 605.5L388.3 604.5L391.3 605.3L392.8 605.7 Z"/>
<path class="land" d="M379.8 609.7L378.6 608.0L379.7 604.5L383.0 599.2L383.6 600.1L381.4 607.1L380.3 610.6 Z"/>
<path class="land" d="M385.7 521.5L384.0 521.4L384.1 520.7L386.3 519.4L387.7 518.9L388.6 519.0L388.5 519.7L387.2 521.0L386.6 521.6 Z"/>
<path class="land" d="M332.0 608.3L331.9 606.2L332.4 603.9L333.5 601.2L333.9 601.3L333.7 604.1L334.8 605.5L337.3 605.7L336.9 606.6L333.7 608.4L332.1 609.3 Z"/>
<path class="land" d="M608.9 402.5L611.3 403.9L612.0 404.9L610.9 405.6L610.7 407.0L611.1 409.0L610.0 408.9L607.2 406.5L606.2 404.4L607.2 402.7L607.7 401.9 Z"/>
<path class="land" d="M659.5 201.5L656.8 201.8L655.4 201.2L655.4 199.7L657.4 198.7L661.3 198.5L662.6 199.1L661.4 200.6L660.8 201.3 Z"/>
<path class="land" d="M326.5 275.9L323.6 274.2L323.4 272.7L326.1 271.5L327.8 271.3L328.4 272.2L328.5 273.6L328.2 275.7L328.0 276.8 Z"/>
<path class="land" d="M334.4 261.9L332.6 261.4L334.3 260.2L339.5 258.3L341.9 258.2L341.7 259.7L340.0 260.9L336.9 261.7L335.3 262.1 Z"/>
<path class="land" d="M415.2 157.3L414.4 156.4L414.6 155.2L415.8 153.6L417.5 153.0L419.8 153.3L419.6 154.5L416.9 156.7L415.6 157.8 Z"/>
<path class="land" d="M443.9 37.3L446.4 37.8L447.1 38.8L446.2 40.4L441.8 43.8L433.9 48.9L429.8 50.2L429.5 47.8L429.8 45.6L430.8 43.6L434.2 41.3L439.8 38.4L442.7 37.0 Z"/>
<path class="land" d="M481.7 19.4L484.7 16.2L486.5 12.9L487.4 8.0L494.5 8.0L495.1 14.9L492.6 20.3L487.2 26.5L481.8 30.9L476.5 33.3L473.0 33.7L471.4 32.0L467.4 33.6L461.0 38.3L455.9 40.7L452.2 40.9L450.3 40.1L450.3 38.4L452.0 35.6L455.2 31.7L459.4 29.2L464.5 28.1L468.6 25.2L471.7 20.5L473.7 15.6L474.8 8.0L483.5 8.0L481.0 17.8L480.2 21.1 Z"/>
<path class="land" d="M472.6 8.0L472.2 13.2L470.4 15.9L467.2 17.7L462.5 17.8L456.4 16.3L453.1 14.8L452.8 13.5L453.4 11.6L455.8 8.0L461.3 8.0 Z"/>
<path class="land" d="M387.8 207.2L382.9 207.0L381.8 205.7L384.6 203.2L386.6 201.9L387.7 202.0L388.7 203.3L389.7 205.9L390.2 207.2 Z"/>
<path class="land" d="M527.2 442.5L533.0 441.2L536.1 441.2L536.7 442.5L536.0 443.5L534.0 444.2L532.3 446.4L531.0 449.9L523.9 456.0L510.9 464.8L500.6 469.3L493.0 469.6L492.1 470.3L497.8 471.3L501.3 472.6L502.7 474.4L502.0 475.8L499.3 476.9L498.5 479.6L499.7 483.7L499.9 486.3L499.2 487.3L498.9 490.1L498.8 494.7L498.3 497.0L497.3 497.1L496.6 498.1L496.2 500.0L496.5 503.8L497.4 509.6L497.1 514.7L495.3 519.0L494.7 523.0L495.2 526.6L492.8 536.1L487.5 551.4L484.1 559.8L482.4 561.6L480.5 561.9L478.5 560.8L473.4 560.5L465.0 560.9L460.4 561.4L459.7 561.9L459.6 563.0L460.0 564.8L459.2 565.6L457.3 565.3L454.6 567.1L451.2 570.9L449.4 573.7L449.3 575.6L449.9 578.3L451.3 581.8L451.2 584.7L449.5 587.0L446.8 587.9L443.2 587.3L439.0 587.8L434.1 589.2L429.6 589.4L425.2 588.2L423.5 584.7L424.4 578.8L422.3 571.0L417.3 561.4L416.5 556.8L419.8 557.2L420.7 555.9L419.2 552.7L419.5 551.0L421.5 550.8L422.8 550.1L423.4 549.0L423.6 547.5L423.2 545.7L420.7 542.1L416.1 536.9L412.0 529.4L408.4 519.5L406.1 514.7L405.2 515.0L404.3 512.9L403.5 508.2L402.3 505.5L400.9 504.8L400.0 502.1L399.7 497.3L398.8 494.6L397.3 494.1L396.0 492.7L395.0 490.5L394.4 487.4L394.3 483.2L393.3 480.8L391.4 480.2L390.0 474.1L389.0 462.2L388.8 455.4L389.2 453.7L390.4 452.9L392.3 453.2L390.5 452.2L385.1 449.9L381.4 446.7L379.5 442.7L378.3 437.1L377.8 429.7L377.3 426.7L376.6 428.0L376.5 429.8L376.9 431.9L376.2 433.7L374.5 435.0L373.8 438.0L374.1 442.7L373.0 447.6L370.5 452.9L367.6 456.0L364.3 457.0L361.2 456.0L358.3 453.0L357.6 452.5L359.0 454.5L359.5 455.8L359.1 456.6L357.2 458.1L353.7 460.3L352.4 461.9L353.3 462.8L353.4 463.9L352.6 465.0L348.3 469.8L340.3 478.3L334.6 484.0L331.0 487.0L325.8 489.6L318.8 491.9L313.1 493.1L308.5 493.0L305.6 491.8L304.3 489.4L302.9 489.0L301.5 490.5L300.1 491.1L298.7 490.5L298.3 488.7L299.0 485.6L296.3 482.9L290.3 480.8L285.0 477.4L280.3 472.8L277.7 468.5L277.1 464.6L277.2 460.8L278.1 457.2L280.9 456.7L285.8 459.5L289.5 459.6L292.1 457.1L292.1 456.3L289.5 457.2L287.2 456.3L285.1 453.5L284.3 450.1L285.0 446.2L287.5 441.7L292.0 436.6L289.1 437.9L278.7 445.6L272.6 449.4L270.7 449.5L269.6 448.9L269.2 447.7L269.8 443.0L271.6 434.9L273.3 430.1L274.9 428.7L277.2 428.6L280.2 429.6L283.9 428.5L288.3 425.4L288.6 424.1L284.8 424.6L282.4 424.1L281.4 422.8L282.6 419.9L285.9 415.6L288.0 411.9L288.7 408.9L290.9 405.6L294.7 402.1L296.8 400.9L297.4 401.8L297.4 404.4L296.9 408.5L297.7 407.9L299.6 402.6L301.9 399.0L304.6 397.1L301.8 397.9L293.5 401.2L287.9 405.6L285.2 411.1L280.1 418.2L272.9 426.7L269.1 430.1L268.6 428.2L268.9 423.8L269.9 416.7L272.8 412.8L277.6 412.1L278.0 411.0L274.0 409.3L271.3 406.1L269.8 401.3L271.6 396.4L276.7 391.5L277.2 390.3L273.2 392.7L270.6 393.2L269.3 391.8L268.1 387.1L267.1 378.9L275.3 373.7L292.9 371.5L303.0 372.4L305.6 376.3L306.9 376.8L306.9 374.0L309.7 371.4L315.3 368.9L317.1 367.5L315.1 367.3L313.8 366.4L313.3 364.8L313.5 362.6L314.4 359.8L314.3 359.0L313.2 360.3L312.4 363.0L311.9 366.9L311.1 369.0L310.1 369.3L307.0 369.1L301.9 368.2L299.0 367.0L298.4 365.3L297.1 366.0L294.9 369.2L289.2 371.1L280.0 371.8L273.6 371.2L270.2 369.5L268.1 368.0L267.2 366.7L266.7 364.1L266.5 360.3L268.1 357.9L271.4 356.8L271.0 353.9L267.0 349.2L264.9 345.1L265.0 341.6L267.6 339.6L272.9 339.2L278.3 340.2L283.8 342.5L290.1 342.8L297.2 341.0L293.5 339.5L278.9 338.1L270.8 336.4L269.1 334.5L268.5 332.1L269.0 329.3L270.3 328.0L272.4 328.1L274.3 326.5L276.1 323.1L278.8 320.3L282.5 318.1L285.3 317.7L287.0 319.1L290.4 319.2L295.3 317.9L298.3 316.7L299.4 315.4L297.2 315.4L291.7 316.7L290.0 315.1L292.2 310.7L299.3 309.2L311.4 310.6L318.0 310.8L319.2 310.0L319.0 309.4L317.4 308.8L316.6 307.9L316.8 306.6L319.6 305.3L325.1 304.0L321.1 303.4L307.6 303.7L301.9 301.5L303.9 297.0L308.1 292.8L314.3 289.1L320.1 287.4L325.4 287.5L330.6 290.3L335.8 295.7L336.1 294.9L331.4 288.0L329.7 283.2L330.8 280.4L333.2 278.4L336.8 277.2L338.4 275.6L338.0 273.8L336.6 272.0L334.3 270.4L334.2 268.5L336.4 266.2L340.2 265.1L345.8 265.3L348.3 266.4L347.7 268.5L347.8 270.0L348.6 270.9L349.8 270.1L351.5 267.6L354.1 265.8L357.8 264.6L361.3 266.6L364.5 271.8L369.8 273.6L377.2 272.1L380.4 270.2L379.5 268.0L379.4 266.2L379.9 264.7L383.3 262.0L389.8 257.9L392.0 254.8L390.1 252.7L390.3 250.2L392.9 247.4L392.4 246.4L388.9 247.2L386.3 248.4L384.7 249.9L384.6 251.5L385.9 253.2L386.0 254.9L384.9 256.6L379.9 260.3L371.2 266.1L366.2 268.9L364.9 268.7L363.4 266.6L361.9 262.6L360.2 260.9L358.5 261.3L357.8 260.3L358.0 257.7L362.8 249.3L372.2 235.1L381.7 224.2L391.2 216.7L396.6 212.1L397.6 210.4L397.8 209.6L397.1 209.5L395.4 210.2L392.8 211.7L391.8 210.6L392.3 207.1L393.2 204.5L394.6 202.9L398.7 199.7L405.3 194.9L409.4 193.6L410.8 195.8L412.6 196.7L414.6 196.4L417.6 193.4L421.6 187.7L421.2 186.7L416.2 190.4L412.4 191.1L409.5 188.8L408.1 186.7L408.0 184.7L410.7 177.3L416.3 164.3L420.9 157.1L424.3 155.8L424.8 153.4L422.3 149.8L425.5 147.1L434.3 145.1L440.5 142.7L444.1 139.8L441.4 139.2L432.3 140.8L427.5 139.2L427.0 134.2L427.4 129.1L428.8 123.9L431.6 119.3L435.7 115.5L439.4 113.5L442.7 113.5L442.9 112.1L439.8 109.3L441.7 104.7L448.6 98.2L457.3 94.5L468.0 93.4L468.5 91.9L458.8 90.1L456.6 85.4L461.8 77.5L466.6 74.9L471.0 77.5L474.2 80.4L476.0 83.7L476.8 84.1L476.6 81.6L477.1 79.3L478.3 77.3L476.6 75.3L472.2 73.2L470.3 70.0L470.9 65.7L468.5 64.8L463.3 67.1L460.8 66.6L461.0 63.0L462.3 59.3L464.8 55.5L468.9 53.6L474.6 53.8L475.9 52.3L472.9 49.1L474.8 45.4L481.7 41.1L486.6 43.6L489.7 52.9L490.9 55.9L490.4 52.7L490.8 49.9L492.1 47.5L492.1 45.6L490.8 44.2L489.9 41.2L489.3 36.6L489.9 33.3L491.8 31.3L495.5 30.8L501.1 31.8L506.9 31.3L512.8 29.3L515.2 27.6L513.9 26.1L509.1 25.6L500.8 26.0L496.2 25.3L495.5 23.5L495.9 21.3L497.2 18.8L501.6 15.2L512.6 8.0L909.2 8.0L925.3 26.2L932.7 32.6L936.7 33.4L942.0 36.9L952.0 46.1L952.0 144.4L948.9 146.0L940.9 147.0L927.1 147.9L915.7 146.1L906.5 141.8L894.7 138.1L880.1 135.0L869.4 130.8L862.5 125.5L857.4 123.5L854.0 125.0L851.9 125.0L851.0 123.4L850.8 122.2L851.4 121.2L845.2 118.3L832.3 113.5L824.3 108.8L821.3 104.3L820.2 101.2L821.0 99.5L816.3 97.8L806.0 95.9L803.9 96.9L809.9 100.9L812.7 104.0L812.3 106.3L814.1 109.9L818.1 114.8L821.7 117.7L824.8 118.8L826.6 121.2L827.0 124.9L829.3 127.8L833.7 130.1L834.4 132.6L831.5 135.4L833.7 138.1L841.2 140.6L847.8 145.3L853.6 152.0L856.9 157.6L857.7 162.0L857.3 167.4L855.7 173.6L853.9 178.1L851.8 180.8L852.7 187.0L856.7 196.7L858.8 203.8L859.1 208.1L859.8 210.8L861.0 211.8L861.2 212.9L860.2 214.1L859.8 216.3L859.9 219.7L860.8 222.8L862.4 225.6L865.2 228.0L869.2 230.2L872.2 230.9L874.4 230.2L877.9 232.0L882.9 236.3L886.4 240.6L888.6 244.8L895.0 249.1L905.8 253.4L913.7 254.0L918.9 250.9L922.0 247.8L923.0 244.6L922.9 240.3L921.8 235.1L920.2 231.6L918.1 229.8L914.3 228.8L908.7 228.6L903.0 224.0L896.9 215.2L893.7 209.0L893.3 205.5L894.3 203.2L896.8 202.1L898.5 199.3L899.5 195.0L903.2 193.5L909.6 195.1L915.2 198.5L920.0 203.9L924.4 206.9L928.4 207.4L935.8 210.7L952.0 220.1L952.0 676.2L259.9 676.2L261.3 672.7L263.2 671.4L266.1 671.1L269.9 668.4L274.6 663.3L278.6 659.8L282.0 658.1L288.4 656.6L297.8 655.5L304.3 656.3L308.1 658.9L309.3 659.5L307.9 657.9L307.3 656.3L307.5 654.6L308.6 652.1L310.7 648.6L315.4 646.9L322.6 646.7L326.9 647.9L328.5 650.3L329.0 652.2L328.4 653.5L328.8 654.3L330.2 654.6L331.3 653.5L332.2 650.8L333.4 650.2L335.0 651.8L335.8 653.5L335.8 655.5L336.0 653.3L336.3 646.8L336.9 642.8L337.8 641.2L341.2 640.6L347.0 640.9L351.8 643.2L355.6 647.5L358.5 650.0L360.4 650.8L359.1 648.6L354.4 643.5L350.4 640.4L347.1 639.3L345.0 638.1L344.3 636.8L344.0 634.0L344.0 629.6L342.7 627.1L340.1 626.5L338.8 625.3L338.8 623.6L340.4 622.1L343.4 620.9L344.9 619.7L345.0 618.5L343.6 615.7L340.9 611.4L339.0 606.2L337.9 600.3L337.8 597.1L338.8 596.8L339.0 594.3L338.5 589.7L335.8 585.8L331.0 582.6L329.0 577.7L329.7 570.9L329.6 566.1L328.8 563.3L328.6 557.7L329.0 549.4L331.8 546.2L336.8 548.2L340.4 547.0L342.6 542.7L344.5 540.0L346.3 538.9L347.8 539.2L349.1 540.9L350.0 538.9L350.6 533.3L349.6 530.4L347.0 530.3L344.6 532.9L342.4 538.2L339.8 541.4L336.8 542.5L334.3 542.3L332.3 540.6L332.1 537.7L333.7 533.5L335.4 530.3L337.3 528.0L342.3 526.2L350.4 525.1L357.1 520.8L362.4 513.3L367.8 508.1L373.5 505.2L376.7 503.8L377.5 503.7L377.0 505.3L375.4 508.6L375.0 511.3L375.9 513.4L376.3 516.3L376.2 520.1L375.0 524.2L372.7 528.7L371.5 534.4L371.4 541.2L372.4 545.6L374.4 547.4L377.2 548.3L380.8 548.2L382.9 548.9L383.7 550.3L384.0 551.8L383.7 553.3L382.1 555.5L379.4 558.3L376.8 559.2L374.4 558.4L372.2 561.4L370.3 568.2L368.0 571.9L365.2 572.3L364.4 573.2L365.6 574.6L364.0 577.7L359.7 582.4L358.0 586.8L358.8 590.7L358.1 594.7L355.9 598.6L356.0 600.9L358.4 601.6L359.8 603.6L360.4 607.0L362.0 609.8L364.8 612.1L366.2 614.0L366.3 615.6L365.5 617.3L363.9 619.2L364.5 620.0L367.2 619.7L368.9 620.3L369.6 621.6L370.7 622.1L372.2 621.6L374.7 622.3L378.4 624.4L381.7 624.9L384.5 623.9L386.1 624.2L386.6 625.8L385.6 628.4L383.1 631.9L382.1 634.2L382.5 635.3L385.4 636.4L390.8 637.5L395.5 636.4L399.5 633.0L403.0 631.1L406.1 630.7L410.0 628.0L414.6 622.9L419.2 620.8L423.7 621.8L428.0 624.5L432.2 629.1L435.6 631.3L438.4 631.1L440.9 634.0L443.1 639.9L447.4 644.3L453.7 647.0L456.7 646.8L456.4 643.7L453.2 641.7L446.9 640.8L443.3 638.2L442.3 634.0L444.6 633.6L450.1 637.0L461.8 635.7L479.7 629.5L490.5 624.1L494.2 619.6L499.6 615.8L506.6 612.8L514.1 610.4L522.3 608.6L527.6 607.6L530.0 607.6L533.3 608.9L537.6 611.5L538.2 612.3L535.0 611.3L534.5 613.5L536.9 618.9L538.9 622.1L540.5 623.1L544.2 623.5L549.8 623.2L554.9 621.0L559.4 616.7L562.2 612.1L563.4 607.2L566.1 604.4L570.2 603.9L573.7 602.4L576.6 599.7L579.6 595.8L583.0 590.6L585.1 586.1L586.1 582.3L586.2 582.8L585.4 587.5L582.8 593.0L578.5 599.4L579.2 603.0L585.1 603.8L588.3 599.7L588.8 590.7L588.2 583.0L586.4 576.7L585.4 566.2L585.1 551.5L585.2 542.4L585.6 539.0L587.1 535.5L589.9 532.0L591.8 527.4L592.9 521.9L594.8 516.8L597.5 512.2L602.9 508.5L611.1 505.6L615.7 505.4L616.6 507.8L619.5 511.5L624.4 516.5L627.6 521.2L629.0 525.5L631.6 528.7L635.2 530.9L638.4 531.6L641.2 530.9L644.8 528.4L649.3 523.9L651.2 516.8L650.4 506.9L651.1 496.6L653.3 485.9L653.5 480.3L651.6 479.8L649.5 480.6L647.3 482.8L644.5 483.0L641.1 481.2L638.1 477.5L635.5 471.8L635.1 467.7L636.8 465.3L636.7 464.0L635.0 464.0L633.7 462.7L633.0 460.2L633.1 458.1L633.9 456.6L634.2 454.0L634.0 450.2L636.8 447.3L642.7 445.5L645.5 443.8L645.2 442.2L646.6 440.4L649.9 438.5L656.8 437.0L667.4 436.1L673.0 434.4L673.6 432.1L685.8 433.2L709.5 437.6L722.2 438.4L723.9 435.7L724.7 432.1L724.6 427.6L726.0 426.2L728.7 428.0L731.0 427.3L732.8 424.2L735.9 422.9L740.1 423.3L743.3 421.8L745.3 418.4L751.1 417.9L760.8 420.5L765.9 420.9L766.4 419.2L764.4 416.0L759.9 411.3L754.4 408.9L747.9 409.0L742.6 407.2L738.4 403.5L735.5 400.0L734.0 396.7L733.9 395.5L735.2 396.5L736.0 395.8L736.2 393.4L735.7 391.5L734.3 390.2L728.4 391.6L718.0 395.9L711.5 397.3L708.9 395.7L704.3 396.2L697.7 398.9L694.5 398.0L694.8 393.8L694.1 393.7L692.2 397.7L689.1 399.2L684.9 398.2L683.2 399.0L684.0 401.7L683.0 403.8L680.3 405.3L678.4 405.4L677.4 404.0L671.6 405.6L661.1 410.0L655.1 413.1L653.6 414.9L647.9 416.2L638.2 416.9L631.1 418.9L626.7 422.3L624.2 423.9L623.7 423.7L624.5 421.6L626.9 417.8L626.6 414.0L623.8 410.2L621.5 409.8L619.9 412.9L617.7 414.7L614.8 415.2L613.3 414.3L613.1 411.7L613.7 409.7L615.2 408.3L615.5 407.0L614.8 406.0L614.8 404.5L615.5 402.5L612.2 400.2L604.9 397.7L601.1 395.5L600.6 393.8L599.4 393.5L597.5 394.8L595.6 394.7L593.9 393.4L592.6 389.0L591.9 381.5L592.3 374.4L593.8 368.0L594.5 362.6L594.4 358.4L594.7 356.3L595.3 356.3L595.2 355.6L594.6 354.2L594.8 353.1L595.8 352.3L594.6 347.7L591.2 339.3L589.9 332.1L590.7 325.9L590.3 321.4L588.5 318.5L587.3 314.8L586.7 310.3L588.2 303.6L591.9 294.7L594.6 290.1L596.4 290.0L596.7 288.1L595.7 284.5L599.0 281.5L606.7 279.1L610.2 276.6L609.4 273.7L609.6 272.3L610.6 272.2L611.0 271.4L610.7 270.0L610.9 269.5L611.7 269.8L612.8 268.2L614.1 264.7L620.1 258.5L630.7 249.7L639.4 239.8L646.1 229.0L650.9 220.2L653.7 213.6L657.0 209.3L660.8 207.3L664.4 206.6L667.8 207.2L669.3 206.4L668.7 204.3L669.1 202.5L670.5 201.2L670.7 198.9L669.5 195.7L669.4 190.2L670.3 182.2L667.4 175.9L660.7 171.3L656.9 167.9L656.0 165.8L655.7 163.6L656.2 161.1L655.3 160.8L653.1 162.7L648.5 163.1L641.4 161.9L634.9 162.5L629.0 164.7L624.4 164.2L620.8 160.9L618.0 160.2L615.9 162.1L614.2 162.2L612.9 160.5L611.4 162.9L610.0 169.3L608.4 172.3L606.8 172.0L606.2 172.5L606.8 173.9L606.0 174.9L603.8 175.4L602.4 176.9L602.0 179.5L600.3 181.0L597.1 181.4L595.4 182.2L594.9 183.3L595.2 185.1L596.0 187.4L595.5 187.9L593.5 186.6L593.3 188.2L594.9 192.7L593.6 198.7L589.2 206.2L589.0 213.9L592.8 221.9L592.2 229.2L587.2 235.7L583.4 242.5L580.9 249.6L575.4 256.0L567.0 261.7L561.8 266.3L559.9 269.5L557.1 271.0L553.5 270.7L550.0 273.2L546.9 278.5L543.1 281.8L538.9 283.1L536.4 285.1L535.6 287.6L534.2 289.6L532.0 291.0L531.9 291.9L533.8 292.0L534.5 293.1L534.1 295.2L532.5 297.3L529.6 299.7L526.7 299.9L523.8 298.1L522.8 298.8L523.7 302.1L523.9 304.4L523.1 305.8L523.5 307.1L524.8 308.4L523.5 310.6L519.6 313.8L516.4 315.3L513.7 315.1L512.6 316.3L513.1 319.1L514.4 321.5L516.4 323.7L516.8 325.5L515.6 326.9L514.3 330.8L513.0 337.2L512.7 342.2L513.6 346.1L512.8 347.5L510.1 346.7L508.4 347.8L507.8 351.0L508.0 361.6L509.2 379.6L511.5 389.3L514.9 390.8L517.0 392.4L517.6 394.3L519.4 394.7L522.4 393.6L524.9 394.9L526.9 398.5L529.9 401.9L533.8 405.0L535.7 407.6L535.5 409.6L536.6 411.3L539.1 412.8L541.4 416.0L543.4 421.0L544.3 424.2L544.1 425.6L539.1 430.5L529.2 438.9L524.3 443.1 Z"/>
<g class="coast" filter="url(#rt-glow)">
<path d="M616.5 470.4L618.2 470.5L621.7 470.8L625.2 472.5L628.7 475.4L629.5 477.0L627.6 477.3L624.6 479.4L620.7 483.3L616.9 485.3L613.4 485.6L610.5 488.1L608.3 492.8L606.5 495.5L604.9 496.1L604.1 495.9L604.0 494.7L604.9 492.6L606.9 489.6L606.4 487.1L603.4 485.0L602.4 482.8L603.4 480.5L603.3 478.3L602.1 476.2L603.5 475.0L607.5 474.8L609.8 474.0L610.4 472.6L612.2 471.5L615.0 470.8L616.5 470.4"/>
<path d="M546.1 500.0L544.8 501.2L542.2 503.7L540.8 506.9L540.5 511.1L541.0 513.9L542.2 515.5L540.6 518.4L536.3 522.8L533.5 526.6L532.2 530.0L530.5 532.2L528.6 533.3L528.3 532.3L529.7 529.3L529.5 526.1L527.7 522.7L527.0 518.3L527.3 513.0L529.4 507.9L533.4 502.8L536.7 500.2L539.4 500.2L541.2 499.4L542.1 497.8L543.5 497.8L545.2 499.3L546.1 500.0"/>
<path d="M416.8 574.5L416.7 575.6L416.4 577.9L415.2 579.7L413.0 580.9L411.3 582.5L410.3 584.7L410.6 586.4L412.3 587.8L413.3 589.4L413.5 591.2L412.1 592.9L408.9 594.6L407.1 598.7L406.7 605.1L405.5 608.7L403.7 609.5L401.7 606.3L399.6 599.1L396.8 595.3L393.1 595.0L390.7 593.8L389.6 591.6L388.7 588.2L388.3 583.4L387.3 579.9L385.9 577.8L386.9 576.5L390.3 575.9L392.8 574.0L394.3 570.6L395.8 568.8L397.3 568.5L398.4 568.9L399.1 569.7L399.4 571.7L399.4 574.9L400.0 576.8L401.3 577.3L402.5 575.8L403.6 572.3L403.8 569.9L403.2 568.7L404.6 566.7L408.1 564.0L411.6 563.1L415.2 564.1L416.9 567.1L416.8 572.0L416.8 574.5"/>
<path d="M378.5 580.7L379.4 583.2L381.1 588.3L381.8 592.4L381.5 595.7L380.5 598.1L378.9 599.5L375.0 599.2L368.7 597.3L364.9 594.6L363.6 591.2L362.9 588.2L362.9 585.4L366.9 583.2L374.6 581.5L378.5 580.7"/>
<path d="M105.2 474.4L104.7 476.3L103.7 479.9L99.3 485.2L91.6 492.0L87.5 496.4L87.0 498.4L87.7 499.7L89.4 500.4L89.0 502.9L86.2 507.4L88.5 508.4L95.7 506.0L106.0 504.8L119.2 504.9L126.8 505.8L128.9 507.5L130.3 509.6L131.2 512.2L127.6 521.9L119.5 538.5L111.9 548.6L104.8 552.1L103.3 553.6L107.5 553.0L110.8 553.4L113.1 554.8L114.2 556.1L113.9 557.3L110.4 559.9L103.6 563.9L98.0 565.3L93.8 564.1L95.4 564.8L102.7 567.3L108.6 567.9L113.1 566.6L117.6 567.0L122.1 569.2L126.8 573.3L131.6 579.1L136.2 589.7L140.4 604.7L145.3 613.9L150.9 617.4L156.6 622.4L162.4 628.9L164.7 633.0L163.5 634.7L164.5 639.0L167.7 645.9L167.4 648.3L163.5 646.1L159.7 645.2L155.8 645.4L155.7 645.8L159.3 646.3L164.0 649.6L169.6 655.5L172.8 660.0L173.6 662.9L172.5 666.4L169.4 670.6L169.1 673.5L171.4 675.1L173.9 674.6L176.7 672.0L180.6 670.8L185.5 670.9L190.5 672.3L198.1 676.2"/>
<path d="M194.1 676.2L192.1 676.2L190.1 676.2L188.1 676.2L186.0 676.2L184.0 676.2L182.0 676.2L180.0 676.2L178.0 676.2L176.0 676.2L174.0 676.2"/>
<path d="M170.0 676.2L167.9 676.2L165.9 676.2L163.9 676.2L161.9 676.2L159.9 676.2L157.9 676.2L155.9 676.2L153.9 676.2L151.9 676.2L149.8 676.2L147.8 676.2L145.8 676.2L143.8 676.2L141.8 676.2L139.8 676.2L137.8 676.2L135.8 676.2L133.8 676.2L131.7 676.2L129.7 676.2L127.7 676.2L125.7 676.2L123.7 676.2L121.7 676.2L119.7 676.2L117.7 676.2L115.7 676.2L113.6 676.2L111.6 676.2L109.6 676.2L107.6 676.2L105.6 676.2L103.6 676.2L101.6 676.2L99.6 676.2L97.6 676.2L95.6 676.2L93.5 676.2L91.5 676.2L89.5 676.2L87.5 676.2L85.5 676.2"/>
<path d="M85.5 676.2L85.5 673.4L82.6 673.3L76.8 675.1L76.0 673.2L80.1 667.6L84.4 663.5L89.0 660.9L93.7 659.2L98.5 658.5L102.0 658.8L104.3 660.3L105.1 659.9L104.4 657.6L104.6 656.3L105.6 655.7L106.8 656.5L108.3 658.5L109.8 659.5L111.5 659.4L111.5 659.0L109.9 658.3L108.3 656.7L106.8 653.9L106.8 650.7L108.2 647.1L108.3 644.3L107.1 642.4L107.2 640.5L108.6 638.5L109.5 635.7L109.8 632.0L108.5 630.6L105.6 631.5L102.1 629.0L98.1 623.2L95.9 619.5L95.7 617.8L96.2 615.2L97.5 611.6L100.3 608.3L104.5 605.2L104.1 603.7L99.0 603.7L94.4 605.2L90.4 608.1L86.9 609.0L83.9 607.8L81.1 608.0L78.5 609.6L75.7 609.6L72.7 608.1L70.8 608.7L69.8 611.3L68.3 611.2L66.0 608.4L64.7 605.8L64.4 603.6L64.8 602.4L65.9 602.4L68.4 597.9L72.2 589.0L73.0 582.8L70.8 579.3L69.9 576.0L70.1 572.9L70.5 570.8L71.1 569.6L72.6 569.0L74.8 569.1L74.6 568.1L72.0 566.1L70.9 564.1L71.4 562.2L69.5 563.7L65.2 568.5L63.1 569.3L63.2 566.1L63.9 563.4L65.3 561.0L64.3 561.7L61.1 565.3L59.6 569.1L59.8 573.0L59.1 578.4L57.4 585.1L55.7 588.9L54.0 589.9L53.3 587.8L53.8 582.7L55.0 578.6L56.7 575.5L57.0 573.8L55.8 573.6L55.3 571.4L55.4 567.1L57.6 558.7L61.8 546.0L61.6 541.7L57.0 545.8L52.3 546.2L47.5 542.8L47.1 539.9L51.1 537.5L52.5 535.8L51.2 534.9L51.8 532.6L54.5 529.0L56.0 525.9L56.3 523.6L55.3 521.0L53.0 518.3L51.8 516.2L51.7 514.5L52.8 513.0L55.0 511.5L55.2 509.7L53.6 507.4L53.5 504.3L54.9 500.3L57.8 498.3L62.3 498.3L63.2 496.6L60.7 493.0L59.8 489.7L60.5 486.5L62.5 484.7L65.8 484.2L67.0 482.9L66.2 480.5L66.2 477.7L66.9 474.2L68.8 473.0L71.8 474.1L74.4 474.1L76.6 473.0L78.0 472.9L78.6 474.0L84.7 473.2L96.4 470.6L103.2 469.4L105.3 469.7L106.0 471.0L105.5 473.3L105.2 474.4"/>
<path d="M24.3 600.0L25.5 598.9L27.8 596.7L33.0 595.3L41.1 594.7L47.2 597.9L51.3 604.8L52.6 609.8L51.0 612.8L51.6 614.2L54.6 613.8L56.5 614.5L57.4 616.4L57.9 618.3L58.0 620.2L57.1 620.3L55.2 618.4L54.4 618.9L54.5 621.8L55.1 623.3L56.0 623.5L56.3 624.4L55.8 626.1L54.5 627.3L52.3 627.9L50.2 629.8L48.3 632.9L46.4 634.2L44.4 633.5L43.7 633.8L44.3 635.0L43.7 635.9L41.8 636.4L41.9 640.1L43.9 647.0L44.9 652.2L44.8 655.7L45.3 659.8L46.3 664.3L46.9 668.0L47.1 670.7L46.7 673.1L45.1 676.2"/>
<path d="M45.1 676.2L43.0 676.2L41.0 676.2L38.9 676.2L36.8 676.2L34.8 676.2L32.7 676.2L30.7 676.2L28.6 676.2L26.5 676.2L24.5 676.2L22.4 676.2L20.4 676.2L18.3 676.2L16.2 676.2L14.2 676.2L12.1 676.2L10.1 676.2L8.0 676.2"/>
<path d="M8.0 676.2L8.0 672.8L8.0 669.3L8.0 665.9L8.0 662.4L8.0 659.0L8.0 655.5L8.0 652.0L8.0 648.6L8.0 645.1L8.0 641.6L8.0 638.0L8.0 634.5L8.0 631.0L8.0 627.5L8.0 623.9L8.0 620.4L8.0 616.8L8.0 613.2L8.0 609.6L8.0 606.0L8.0 602.4L8.0 598.8L8.0 595.2"/>
<path d="M8.0 595.2L13.5 593.9L15.7 594.6L16.4 596.7L16.3 599.1L15.3 601.7L15.7 602.3L17.5 601.0L18.2 598.6L17.8 595.1L18.7 592.9L20.8 592.0L21.6 591.0L20.9 590.0L20.9 589.4L21.5 589.3L23.5 590.4L26.9 592.6L27.6 594.6L25.5 596.3L24.4 597.9L24.4 599.3L24.3 600.0"/>
<path d="M622.6 462.5L620.7 463.8L616.9 466.4L614.3 466.1L613.0 462.8L610.6 460.3L607.1 458.8L607.3 457.7L611.4 457.1L614.3 455.8L616.2 453.6L618.4 453.4L621.0 455.3L622.8 457.7L623.8 460.7L623.8 462.3L623.0 462.4L622.6 462.5"/>
<path d="M878.8 192.3L879.0 193.6L879.4 196.0L879.2 198.4L878.4 200.8L876.8 200.0L874.3 195.8L874.5 193.4L877.4 192.7L878.8 192.3"/>
<path d="M79.3 629.9L78.3 631.0L76.3 633.1L74.4 634.1L72.7 633.9L72.3 632.4L73.2 629.9L75.0 627.0L77.7 623.9L79.5 623.5L80.3 625.9L80.4 627.8L79.7 629.2L79.3 629.9"/>
<path d="M52.2 554.6L49.5 555.0L44.2 556.0L42.2 555.8L43.4 554.7L44.3 552.9L44.8 550.5L44.1 548.6L42.3 547.2L42.5 545.8L44.6 544.4L47.4 545.1L50.8 547.9L52.4 550.7L52.2 553.3L52.2 554.6"/>
<path d="M45.2 569.4L45.4 571.8L45.8 576.6L44.9 579.5L42.8 580.3L41.7 579.3L41.7 576.2L40.8 575.4L38.9 576.9L38.4 576.2L39.1 573.4L40.9 571.4L43.8 570.0L45.2 569.4"/>
<path d="M48.3 573.5L47.8 572.8L46.8 571.4L47.1 570.0L48.7 568.5L49.4 567.2L49.1 565.9L50.0 564.6L52.1 563.3L52.0 565.4L49.6 570.8L48.3 573.5"/>
<path d="M141.0 395.1L141.7 396.4L143.2 398.8L144.5 399.7L145.6 399.2L144.8 404.6L142.4 415.9L140.9 421.2L140.3 420.5L140.4 417.8L141.0 413.0L139.5 409.3L135.8 406.7L135.4 404.9L138.2 403.9L139.3 402.0L138.6 399.3L137.6 397.7L136.4 397.1L136.8 395.7L138.8 393.4L140.2 393.0L140.7 394.4L141.0 395.1"/>
<path d="M83.6 659.0L84.3 659.1L85.8 659.4L86.3 659.8L86.0 660.5L84.4 661.9L81.5 664.1L79.2 664.1L77.4 662.0L76.4 659.9L76.3 657.8L77.5 656.5L80.0 656.0L81.8 656.6L83.0 658.2L83.6 659.0"/>
<path d="M106.2 454.7L107.7 455.4L110.6 456.8L111.6 458.2L110.6 459.4L108.4 459.7L105.1 459.1L103.2 458.0L102.8 456.6L102.0 456.0L101.0 456.2L100.7 455.0L101.0 452.2L102.5 451.1L105.1 451.7L106.3 452.7L106.3 454.0L106.2 454.7"/>
<path d="M24.2 328.8L24.8 329.5L26.0 330.9L26.0 331.9L24.9 332.6L23.1 331.9L20.7 329.8L20.6 328.7L23.0 328.7L24.2 328.8"/>
<path d="M35.2 325.0L35.1 326.4L34.8 329.3L33.8 330.4L32.0 329.9L31.6 331.4L32.8 334.9L31.9 335.2L29.0 332.2L26.8 328.6L25.2 324.6L25.5 322.2L27.6 321.5L30.3 322.2L33.6 324.0L35.2 325.0"/>
<path d="M112.7 448.6L112.3 448.9L111.5 449.3L109.9 448.0L107.5 444.9L106.7 443.1L107.5 442.6L109.1 443.9L111.5 447.1L112.7 448.6"/>
<path d="M43.8 480.2L43.2 481.8L41.9 485.1L40.1 487.7L37.9 489.5L37.5 490.6L39.0 490.9L39.6 491.6L39.4 492.6L36.7 495.6L31.4 500.7L28.1 502.6L26.8 501.4L27.3 499.8L29.6 497.8L29.7 496.0L27.7 494.5L27.1 493.3L27.8 492.4L27.7 491.6L26.6 490.7L26.4 489.1L27.0 486.7L28.8 485.8L31.8 486.5L33.1 485.7L32.6 483.6L35.0 480.6L40.3 476.8L43.2 476.2L43.6 478.9L43.8 480.2"/>
<path d="M44.9 512.3L44.9 514.1L45.0 517.6L47.4 519.9L52.0 521.1L52.9 523.5L50.1 527.3L48.4 529.2L47.8 529.0L47.4 527.6L47.2 524.9L45.6 523.5L42.8 523.5L40.7 522.3L39.5 520.0L37.4 517.8L34.2 515.7L34.6 512.6L38.6 508.4L41.2 506.5L42.3 506.8L43.3 508.3L44.4 511.0L44.9 512.3"/>
<path d="M23.8 505.7L24.3 506.2L25.5 507.3L25.6 508.7L24.7 510.4L22.6 510.6L19.3 509.4L19.2 508.0L22.3 506.5L23.8 505.7"/>
<path d="M564.3 402.7L565.5 403.3L568.0 404.7L569.0 406.3L568.6 408.1L567.6 409.1L566.1 409.4L565.3 410.4L565.2 412.1L563.7 412.9L560.8 412.8L559.1 411.1L558.5 407.7L559.0 406.5L560.6 407.4L561.3 406.2L561.1 402.8L561.8 401.5L563.4 402.3L564.3 402.7"/>
<path d="M588.7 281.0L589.7 281.0L591.7 280.9L591.9 281.9L590.2 283.9L588.5 283.6L586.8 280.8L586.7 279.8L588.0 280.6L588.7 281.0"/>
<path d="M495.5 556.5L495.0 556.9L494.0 557.8L493.4 557.6L493.1 556.4L493.0 553.5L493.1 548.8L496.1 539.7L501.9 526.1L505.4 519.2L506.6 519.2L504.3 528.6L498.4 547.3L495.5 556.5"/>
<path d="M466.8 601.2L464.8 600.5L460.8 599.1L459.0 597.3L459.3 594.9L459.7 593.2L460.2 592.2L462.3 593.0L465.9 595.6L467.5 598.0L467.1 600.2L466.8 601.2"/>
<path d="M439.4 623.2L439.4 624.1L439.4 625.8L438.3 626.2L436.0 625.2L434.3 625.5L433.2 627.1L431.6 626.9L429.6 624.8L428.6 622.3L428.8 619.2L430.1 616.4L432.5 613.7L434.9 613.6L437.2 616.0L438.0 618.0L437.3 619.6L437.5 621.1L438.8 622.5L439.4 623.2"/>
<path d="M416.4 603.2L414.2 603.6L410.0 604.5L408.6 603.6L410.1 601.1L412.3 600.6L415.0 602.3L416.4 603.2"/>
<path d="M392.8 605.7L394.7 606.5L398.4 607.9L400.4 609.7L400.7 611.9L399.3 613.5L396.2 614.3L392.6 613.5L388.4 611.1L386.4 608.4L386.6 605.5L388.3 604.5L391.3 605.3L392.8 605.7"/>
<path d="M380.3 610.6L379.8 609.7L378.6 608.0L379.7 604.5L383.0 599.2L383.6 600.1L381.4 607.1L380.3 610.6"/>
<path d="M386.6 521.6L385.7 521.5L384.0 521.4L384.1 520.7L386.3 519.4L387.7 518.9L388.6 519.0L388.5 519.7L387.2 521.0L386.6 521.6"/>
<path d="M332.1 609.3L332.0 608.3L331.9 606.2L332.4 603.9L333.5 601.2L333.9 601.3L333.7 604.1L334.8 605.5L337.3 605.7L336.9 606.6L333.7 608.4L332.1 609.3"/>
<path d="M607.7 401.9L608.9 402.5L611.3 403.9L612.0 404.9L610.9 405.6L610.7 407.0L611.1 409.0L610.0 408.9L607.2 406.5L606.2 404.4L607.2 402.7L607.7 401.9"/>
<path d="M660.8 201.3L659.5 201.5L656.8 201.8L655.4 201.2L655.4 199.7L657.4 198.7L661.3 198.5L662.6 199.1L661.4 200.6L660.8 201.3"/>
<path d="M328.0 276.8L326.5 275.9L323.6 274.2L323.4 272.7L326.1 271.5L327.8 271.3L328.4 272.2L328.5 273.6L328.2 275.7L328.0 276.8"/>
<path d="M335.3 262.1L334.4 261.9L332.6 261.4L334.3 260.2L339.5 258.3L341.9 258.2L341.7 259.7L340.0 260.9L336.9 261.7L335.3 262.1"/>
<path d="M415.6 157.8L415.2 157.3L414.4 156.4L414.6 155.2L415.8 153.6L417.5 153.0L419.8 153.3L419.6 154.5L416.9 156.7L415.6 157.8"/>
<path d="M442.7 37.0L443.9 37.3L446.4 37.8L447.1 38.8L446.2 40.4L441.8 43.8L433.9 48.9L429.8 50.2L429.5 47.8L429.8 45.6L430.8 43.6L434.2 41.3L439.8 38.4L442.7 37.0"/>
<path d="M480.2 21.1L481.7 19.4L484.7 16.2L486.5 12.9L487.4 8.0"/>
<path d="M487.4 8.0L489.8 8.0L492.2 8.0L494.5 8.0"/>
<path d="M494.5 8.0L495.1 14.9L492.6 20.3L487.2 26.5L481.8 30.9L476.5 33.3L473.0 33.7L471.4 32.0L467.4 33.6L461.0 38.3L455.9 40.7L452.2 40.9L450.3 40.1L450.3 38.4L452.0 35.6L455.2 31.7L459.4 29.2L464.5 28.1L468.6 25.2L471.7 20.5L473.7 15.6L474.8 8.0"/>
<path d="M474.8 8.0L476.9 8.0L479.1 8.0L481.3 8.0L483.5 8.0"/>
<path d="M483.5 8.0L481.0 17.8L480.2 21.1"/>
<path d="M472.6 8.0L472.2 13.2L470.4 15.9L467.2 17.7L462.5 17.8L456.4 16.3L453.1 14.8L452.8 13.5L453.4 11.6L455.8 8.0"/>
<path d="M455.8 8.0L458.5 8.0L461.3 8.0"/>
<path d="M461.3 8.0L463.6 8.0L465.8 8.0L468.1 8.0L470.4 8.0L472.6 8.0"/>
<path d="M390.2 207.2L387.8 207.2L382.9 207.0L381.8 205.7L384.6 203.2L386.6 201.9L387.7 202.0L388.7 203.3L389.7 205.9L390.2 207.2"/>
<path d="M524.3 443.1L527.2 442.5L533.0 441.2L536.1 441.2L536.7 442.5L536.0 443.5L534.0 444.2L532.3 446.4L531.0 449.9L523.9 456.0L510.9 464.8L500.6 469.3L493.0 469.6L492.1 470.3L497.8 471.3L501.3 472.6L502.7 474.4L502.0 475.8L499.3 476.9L498.5 479.6L499.7 483.7L499.9 486.3L499.2 487.3L498.9 490.1L498.8 494.7L498.3 497.0L497.3 497.1L496.6 498.1L496.2 500.0L496.5 503.8L497.4 509.6L497.1 514.7L495.3 519.0L494.7 523.0L495.2 526.6L492.8 536.1L487.5 551.4L484.1 559.8L482.4 561.6L480.5 561.9L478.5 560.8L473.4 560.5L465.0 560.9L460.4 561.4L459.7 561.9L459.6 563.0L460.0 564.8L459.2 565.6L457.3 565.3L454.6 567.1L451.2 570.9L449.4 573.7L449.3 575.6L449.9 578.3L451.3 581.8L451.2 584.7L449.5 587.0L446.8 587.9L443.2 587.3L439.0 587.8L434.1 589.2L429.6 589.4L425.2 588.2L423.5 584.7L424.4 578.8L422.3 571.0L417.3 561.4L416.5 556.8L419.8 557.2L420.7 555.9L419.2 552.7L419.5 551.0L421.5 550.8L422.8 550.1L423.4 549.0L423.6 547.5L423.2 545.7L420.7 542.1L416.1 536.9L412.0 529.4L408.4 519.5L406.1 514.7L405.2 515.0L404.3 512.9L403.5 508.2L402.3 505.5L400.9 504.8L400.0 502.1L399.7 497.3L398.8 494.6L397.3 494.1L396.0 492.7L395.0 490.5L394.4 487.4L394.3 483.2L393.3 480.8L391.4 480.2L390.0 474.1L389.0 462.2L388.8 455.4L389.2 453.7L390.4 452.9L392.3 453.2L390.5 452.2L385.1 449.9L381.4 446.7L379.5 442.7L378.3 437.1L377.8 429.7L377.3 426.7L376.6 428.0L376.5 429.8L376.9 431.9L376.2 433.7L374.5 435.0L373.8 438.0L374.1 442.7L373.0 447.6L370.5 452.9L367.6 456.0L364.3 457.0L361.2 456.0L358.3 453.0L357.6 452.5L359.0 454.5L359.5 455.8L359.1 456.6L357.2 458.1L353.7 460.3L352.4 461.9L353.3 462.8L353.4 463.9L352.6 465.0L348.3 469.8L340.3 478.3L334.6 484.0L331.0 487.0L325.8 489.6L318.8 491.9L313.1 493.1L308.5 493.0L305.6 491.8L304.3 489.4L302.9 489.0L301.5 490.5L300.1 491.1L298.7 490.5L298.3 488.7L299.0 485.6L296.3 482.9L290.3 480.8L285.0 477.4L280.3 472.8L277.7 468.5L277.1 464.6L277.2 460.8L278.1 457.2L280.9 456.7L285.8 459.5L289.5 459.6L292.1 457.1L292.1 456.3L289.5 457.2L287.2 456.3L285.1 453.5L284.3 450.1L285.0 446.2L287.5 441.7L292.0 436.6L289.1 437.9L278.7 445.6L272.6 449.4L270.7 449.5L269.6 448.9L269.2 447.7L269.8 443.0L271.6 434.9L273.3 430.1L274.9 428.7L277.2 428.6L280.2 429.6L283.9 428.5L288.3 425.4L288.6 424.1L284.8 424.6L282.4 424.1L281.4 422.8L282.6 419.9L285.9 415.6L288.0 411.9L288.7 408.9L290.9 405.6L294.7 402.1L296.8 400.9L297.4 401.8L297.4 404.4L296.9 408.5L297.7 407.9L299.6 402.6L301.9 399.0L304.6 397.1L301.8 397.9L293.5 401.2L287.9 405.6L285.2 411.1L280.1 418.2L272.9 426.7L269.1 430.1L268.6 428.2L268.9 423.8L269.9 416.7L272.8 412.8L277.6 412.1L278.0 411.0L274.0 409.3L271.3 406.1L269.8 401.3L271.6 396.4L276.7 391.5L277.2 390.3L273.2 392.7L270.6 393.2L269.3 391.8L268.1 387.1L267.1 378.9L275.3 373.7L292.9 371.5L303.0 372.4L305.6 376.3L306.9 376.8L306.9 374.0L309.7 371.4L315.3 368.9L317.1 367.5L315.1 367.3L313.8 366.4L313.3 364.8L313.5 362.6L314.4 359.8L314.3 359.0L313.2 360.3L312.4 363.0L311.9 366.9L311.1 369.0L310.1 369.3L307.0 369.1L301.9 368.2L299.0 367.0L298.4 365.3L297.1 366.0L294.9 369.2L289.2 371.1L280.0 371.8L273.6 371.2L270.2 369.5L268.1 368.0L267.2 366.7L266.7 364.1L266.5 360.3L268.1 357.9L271.4 356.8L271.0 353.9L267.0 349.2L264.9 345.1L265.0 341.6L267.6 339.6L272.9 339.2L278.3 340.2L283.8 342.5L290.1 342.8L297.2 341.0L293.5 339.5L278.9 338.1L270.8 336.4L269.1 334.5L268.5 332.1L269.0 329.3L270.3 328.0L272.4 328.1L274.3 326.5L276.1 323.1L278.8 320.3L282.5 318.1L285.3 317.7L287.0 319.1L290.4 319.2L295.3 317.9L298.3 316.7L299.4 315.4L297.2 315.4L291.7 316.7L290.0 315.1L292.2 310.7L299.3 309.2L311.4 310.6L318.0 310.8L319.2 310.0L319.0 309.4L317.4 308.8L316.6 307.9L316.8 306.6L319.6 305.3L325.1 304.0L321.1 303.4L307.6 303.7L301.9 301.5L303.9 297.0L308.1 292.8L314.3 289.1L320.1 287.4L325.4 287.5L330.6 290.3L335.8 295.7L336.1 294.9L331.4 288.0L329.7 283.2L330.8 280.4L333.2 278.4L336.8 277.2L338.4 275.6L338.0 273.8L336.6 272.0L334.3 270.4L334.2 268.5L336.4 266.2L340.2 265.1L345.8 265.3L348.3 266.4L347.7 268.5L347.8 270.0L348.6 270.9L349.8 270.1L351.5 267.6L354.1 265.8L357.8 264.6L361.3 266.6L364.5 271.8L369.8 273.6L377.2 272.1L380.4 270.2L379.5 268.0L379.4 266.2L379.9 264.7L383.3 262.0L389.8 257.9L392.0 254.8L390.1 252.7L390.3 250.2L392.9 247.4L392.4 246.4L388.9 247.2L386.3 248.4L384.7 249.9L384.6 251.5L385.9 253.2L386.0 254.9L384.9 256.6L379.9 260.3L371.2 266.1L366.2 268.9L364.9 268.7L363.4 266.6L361.9 262.6L360.2 260.9L358.5 261.3L357.8 260.3L358.0 257.7L362.8 249.3L372.2 235.1L381.7 224.2L391.2 216.7L396.6 212.1L397.6 210.4L397.8 209.6L397.1 209.5L395.4 210.2L392.8 211.7L391.8 210.6L392.3 207.1L393.2 204.5L394.6 202.9L398.7 199.7L405.3 194.9L409.4 193.6L410.8 195.8L412.6 196.7L414.6 196.4L417.6 193.4L421.6 187.7L421.2 186.7L416.2 190.4L412.4 191.1L409.5 188.8L408.1 186.7L408.0 184.7L410.7 177.3L416.3 164.3L420.9 157.1L424.3 155.8L424.8 153.4L422.3 149.8L425.5 147.1L434.3 145.1L440.5 142.7L444.1 139.8L441.4 139.2L432.3 140.8L427.5 139.2L427.0 134.2L427.4 129.1L428.8 123.9L431.6 119.3L435.7 115.5L439.4 113.5L442.7 113.5L442.9 112.1L439.8 109.3L441.7 104.7L448.6 98.2L457.3 94.5L468.0 93.4L468.5 91.9L458.8 90.1L456.6 85.4L461.8 77.5L466.6 74.9L471.0 77.5L474.2 80.4L476.0 83.7L476.8 84.1L476.6 81.6L477.1 79.3L478.3 77.3L476.6 75.3L472.2 73.2L470.3 70.0L470.9 65.7L468.5 64.8L463.3 67.1L460.8 66.6L461.0 63.0L462.3 59.3L464.8 55.5L468.9 53.6L474.6 53.8L475.9 52.3L472.9 49.1L474.8 45.4L481.7 41.1L486.6 43.6L489.7 52.9L490.9 55.9L490.4 52.7L490.8 49.9L492.1 47.5L492.1 45.6L490.8 44.2L489.9 41.2L489.3 36.6L489.9 33.3L491.8 31.3L495.5 30.8L501.1 31.8L506.9 31.3L512.8 29.3L515.2 27.6L513.9 26.1L509.1 25.6L500.8 26.0L496.2 25.3L495.5 23.5L495.9 21.3L497.2 18.8L501.6 15.2L512.6 8.0"/>
<path d="M512.6 8.0L514.6 8.0L516.6 8.0L518.6 8.0L520.6 8.0L522.6 8.0L524.6 8.0L526.6 8.0L528.6 8.0L530.6 8.0L532.6 8.0L534.5 8.0L536.5 8.0L538.5 8.0L540.5 8.0L542.5 8.0L544.5 8.0L546.5 8.0L548.5 8.0L550.5 8.0L552.5 8.0L554.5 8.0L556.5 8.0L558.5 8.0L560.4 8.0L562.4 8.0L564.4 8.0L566.4 8.0L568.4 8.0L570.4 8.0L572.4 8.0L574.4 8.0L576.4 8.0L578.4 8.0L580.4 8.0L582.4 8.0L584.4 8.0L586.4 8.0L588.3 8.0L590.3 8.0L592.3 8.0L594.3 8.0L596.3 8.0L598.3 8.0L600.3 8.0L602.3 8.0L604.3 8.0L606.3 8.0L608.3 8.0L610.3 8.0L612.3 8.0L614.3 8.0L616.2 8.0L618.2 8.0L620.2 8.0L622.2 8.0L624.2 8.0L626.2 8.0L628.2 8.0L630.2 8.0L632.2 8.0L634.2 8.0L636.2 8.0L638.2 8.0L640.2 8.0L642.2 8.0L644.1 8.0L646.1 8.0L648.1 8.0L650.1 8.0L652.1 8.0L654.1 8.0L656.1 8.0L658.1 8.0L660.1 8.0L662.1 8.0L664.1 8.0L666.1 8.0L668.1 8.0L670.0 8.0L672.0 8.0L674.0 8.0L676.0 8.0L678.0 8.0L680.0 8.0L682.0 8.0L684.0 8.0L686.0 8.0L688.0 8.0L690.0 8.0L692.0 8.0L694.0 8.0L696.0 8.0L697.9 8.0L699.9 8.0L701.9 8.0L703.9 8.0L705.9 8.0L707.9 8.0L709.9 8.0L711.9 8.0L713.9 8.0L715.9 8.0L717.9 8.0L719.9 8.0L721.9 8.0L723.9 8.0L725.8 8.0L727.8 8.0L729.8 8.0L731.8 8.0L733.8 8.0L735.8 8.0L737.8 8.0L739.8 8.0L741.8 8.0L743.8 8.0L745.8 8.0L747.8 8.0L749.8 8.0L751.8 8.0L753.7 8.0L755.7 8.0L757.7 8.0L759.7 8.0L761.7 8.0L763.7 8.0L765.7 8.0L767.7 8.0L769.7 8.0L771.7 8.0L773.7 8.0L775.7 8.0L777.7 8.0L779.6 8.0L781.6 8.0L783.6 8.0L785.6 8.0L787.6 8.0L789.6 8.0L791.6 8.0L793.6 8.0L795.6 8.0L797.6 8.0L799.6 8.0L801.6 8.0L803.6 8.0L805.6 8.0L807.5 8.0L809.5 8.0L811.5 8.0L813.5 8.0L815.5 8.0L817.5 8.0L819.5 8.0L821.5 8.0L823.5 8.0L825.5 8.0L827.5 8.0L829.5 8.0L831.5 8.0L833.5 8.0L835.4 8.0L837.4 8.0L839.4 8.0L841.4 8.0L843.4 8.0L845.4 8.0L847.4 8.0L849.4 8.0L851.4 8.0L853.4 8.0L855.4 8.0L857.4 8.0L859.4 8.0L861.4 8.0L863.3 8.0L865.3 8.0L867.3 8.0L869.3 8.0L871.3 8.0L873.3 8.0L875.3 8.0L877.3 8.0L879.3 8.0L881.3 8.0L883.3 8.0L885.3 8.0L887.3 8.0L889.2 8.0L891.2 8.0L893.2 8.0L895.2 8.0L897.2 8.0L899.2 8.0L901.2 8.0L903.2 8.0L905.2 8.0L907.2 8.0L909.2 8.0"/>
<path d="M909.2 8.0L925.3 26.2L932.7 32.6L936.7 33.4L942.0 36.9L952.0 46.1"/>
<path d="M952.0 46.1L952.0 51.5L952.0 56.8L952.0 62.2L952.0 67.5L952.0 72.7L952.0 78.0L952.0 83.2L952.0 88.4L952.0 93.6L952.0 98.8L952.0 104.0L952.0 109.1L952.0 114.2L952.0 119.3L952.0 124.3L952.0 129.4L952.0 134.4L952.0 139.4L952.0 144.4"/>
<path d="M952.0 144.4L948.9 146.0L940.9 147.0L927.1 147.9L915.7 146.1L906.5 141.8L894.7 138.1L880.1 135.0L869.4 130.8L862.5 125.5L857.4 123.5L854.0 125.0L851.9 125.0L851.0 123.4L850.8 122.2L851.4 121.2L845.2 118.3L832.3 113.5L824.3 108.8L821.3 104.3L820.2 101.2L821.0 99.5L816.3 97.8L806.0 95.9L803.9 96.9L809.9 100.9L812.7 104.0L812.3 106.3L814.1 109.9L818.1 114.8L821.7 117.7L824.8 118.8L826.6 121.2L827.0 124.9L829.3 127.8L833.7 130.1L834.4 132.6L831.5 135.4L833.7 138.1L841.2 140.6L847.8 145.3L853.6 152.0L856.9 157.6L857.7 162.0L857.3 167.4L855.7 173.6L853.9 178.1L851.8 180.8L852.7 187.0L856.7 196.7L858.8 203.8L859.1 208.1L859.8 210.8L861.0 211.8L861.2 212.9L860.2 214.1L859.8 216.3L859.9 219.7L860.8 222.8L862.4 225.6L865.2 228.0L869.2 230.2L872.2 230.9L874.4 230.2L877.9 232.0L882.9 236.3L886.4 240.6L888.6 244.8L895.0 249.1L905.8 253.4L913.7 254.0L918.9 250.9L922.0 247.8L923.0 244.6L922.9 240.3L921.8 235.1L920.2 231.6L918.1 229.8L914.3 228.8L908.7 228.6L903.0 224.0L896.9 215.2L893.7 209.0L893.3 205.5L894.3 203.2L896.8 202.1L898.5 199.3L899.5 195.0L903.2 193.5L909.6 195.1L915.2 198.5L920.0 203.9L924.4 206.9L928.4 207.4L935.8 210.7L952.0 220.1"/>
<path d="M952.0 220.1L952.0 224.7L952.0 229.4L952.0 234.0L952.0 238.6L952.0 243.2L952.0 247.8L952.0 252.3L952.0 256.9L952.0 261.4L952.0 265.9L952.0 270.4L952.0 274.9L952.0 279.3L952.0 283.8L952.0 288.2L952.0 292.6L952.0 297.0L952.0 301.4L952.0 305.8L952.0 310.1L952.0 314.5L952.0 318.8L952.0 323.1L952.0 327.4L952.0 331.7L952.0 336.0L952.0 340.2L952.0 344.5L952.0 348.7L952.0 352.9L952.0 357.1L952.0 361.3L952.0 365.5L952.0 369.6L952.0 373.8L952.0 377.9L952.0 382.0L952.0 386.1L952.0 390.2L952.0 394.3L952.0 398.4L952.0 402.4L952.0 406.5L952.0 410.5L952.0 414.5L952.0 418.5L952.0 422.5L952.0 426.5L952.0 430.4L952.0 434.4L952.0 438.4L952.0 442.3L952.0 446.2L952.0 450.1L952.0 454.0L952.0 457.9L952.0 461.8L952.0 465.6L952.0 469.5L952.0 473.3L952.0 477.2L952.0 481.0L952.0 484.8L952.0 488.6L952.0 492.4L952.0 496.2L952.0 499.9L952.0 503.7L952.0 507.4L952.0 511.2L952.0 514.9L952.0 518.6L952.0 522.3L952.0 526.0L952.0 529.7L952.0 533.4L952.0 537.0L952.0 540.7L952.0 544.3L952.0 548.0L952.0 551.6L952.0 555.2L952.0 558.8L952.0 562.4L952.0 566.0L952.0 569.6L952.0 573.2L952.0 576.7L952.0 580.3L952.0 583.8L952.0 587.4L952.0 590.9L952.0 594.4L952.0 597.9L952.0 601.4L952.0 604.9L952.0 608.4L952.0 611.8L952.0 615.3L952.0 618.8L952.0 622.2L952.0 625.6L952.0 629.1L952.0 632.5L952.0 635.9L952.0 639.3L952.0 642.7L952.0 646.1L952.0 649.5L952.0 652.8L952.0 656.2L952.0 659.5L952.0 662.9L952.0 666.2L952.0 669.6L952.0 672.9L952.0 676.2"/>
<path d="M952.0 676.2L950.0 676.2L948.0 676.2L946.0 676.2L944.0 676.2L942.1 676.2L940.1 676.2L938.1 676.2L936.1 676.2L934.1 676.2L932.1 676.2L930.1 676.2L928.1 676.2L926.1 676.2L924.2 676.2L922.2 676.2L920.2 676.2L918.2 676.2L916.2 676.2L914.2 676.2L912.2 676.2L910.2 676.2L908.2 676.2L906.3 676.2L904.3 676.2L902.3 676.2L900.3 676.2L898.3 676.2L896.3 676.2L894.3 676.2L892.3 676.2L890.3 676.2L888.4 676.2L886.4 676.2L884.4 676.2L882.4 676.2L880.4 676.2L878.4 676.2L876.4 676.2L874.4 676.2L872.4 676.2L870.5 676.2L868.5 676.2L866.5 676.2L864.5 676.2L862.5 676.2L860.5 676.2L858.5 676.2L856.5 676.2L854.5 676.2L852.6 676.2L850.6 676.2L848.6 676.2L846.6 676.2L844.6 676.2L842.6 676.2L840.6 676.2L838.6 676.2L836.7 676.2L834.7 676.2L832.7 676.2L830.7 676.2L828.7 676.2L826.7 676.2L824.7 676.2L822.7 676.2L820.7 676.2L818.8 676.2L816.8 676.2L814.8 676.2L812.8 676.2L810.8 676.2L808.8 676.2L806.8 676.2L804.8 676.2L802.8 676.2L800.9 676.2L798.9 676.2L796.9 676.2L794.9 676.2L792.9 676.2L790.9 676.2L788.9 676.2L786.9 676.2L784.9 676.2L783.0 676.2L781.0 676.2L779.0 676.2L777.0 676.2L775.0 676.2L773.0 676.2L771.0 676.2L769.0 676.2L767.0 676.2L765.1 676.2L763.1 676.2L761.1 676.2L759.1 676.2L757.1 676.2L755.1 676.2L753.1 676.2L751.1 676.2L749.1 676.2L747.2 676.2L745.2 676.2L743.2 676.2L741.2 676.2L739.2 676.2L737.2 676.2L735.2 676.2L733.2 676.2L731.2 676.2L729.3 676.2L727.3 676.2L725.3 676.2L723.3 676.2L721.3 676.2L719.3 676.2L717.3 676.2L715.3 676.2L713.3 676.2L711.4 676.2L709.4 676.2L707.4 676.2L705.4 676.2L703.4 676.2L701.4 676.2L699.4 676.2L697.4 676.2L695.4 676.2L693.5 676.2L691.5 676.2L689.5 676.2L687.5 676.2L685.5 676.2L683.5 676.2L681.5 676.2L679.5 676.2L677.5 676.2L675.6 676.2L673.6 676.2L671.6 676.2L669.6 676.2L667.6 676.2L665.6 676.2L663.6 676.2L661.6 676.2L659.6 676.2L657.7 676.2L655.7 676.2L653.7 676.2L651.7 676.2L649.7 676.2L647.7 676.2L645.7 676.2L643.7 676.2L641.7 676.2L639.8 676.2L637.8 676.2L635.8 676.2L633.8 676.2L631.8 676.2L629.8 676.2L627.8 676.2L625.8 676.2L623.9 676.2L621.9 676.2L619.9 676.2L617.9 676.2L615.9 676.2L613.9 676.2L611.9 676.2L609.9 676.2L607.9 676.2L606.0 676.2L604.0 676.2L602.0 676.2L600.0 676.2L598.0 676.2L596.0 676.2L594.0 676.2L592.0 676.2L590.0 676.2L588.1 676.2L586.1 676.2L584.1 676.2L582.1 676.2L580.1 676.2L578.1 676.2L576.1 676.2L574.1 676.2L572.1 676.2L570.2 676.2L568.2 676.2L566.2 676.2L564.2 676.2L562.2 676.2L560.2 676.2L558.2 676.2L556.2 676.2L554.2 676.2L552.3 676.2L550.3 676.2L548.3 676.2L546.3 676.2L544.3 676.2L542.3 676.2L540.3 676.2L538.3 676.2L536.3 676.2L534.4 676.2L532.4 676.2L530.4 676.2L528.4 676.2L526.4 676.2L524.4 676.2L522.4 676.2L520.4 676.2L518.4 676.2L516.5 676.2L514.5 676.2L512.5 676.2L510.5 676.2L508.5 676.2L506.5 676.2L504.5 676.2L502.5 676.2L500.5 676.2L498.6 676.2L496.6 676.2L494.6 676.2L492.6 676.2L490.6 676.2L488.6 676.2L486.6 676.2L484.6 676.2L482.6 676.2L480.7 676.2L478.7 676.2L476.7 676.2L474.7 676.2L472.7 676.2L470.7 676.2L468.7 676.2L466.7 676.2L464.7 676.2L462.8 676.2L460.8 676.2L458.8 676.2L456.8 676.2L454.8 676.2L452.8 676.2L450.8 676.2L448.8 676.2L446.8 676.2L444.9 676.2L442.9 676.2L440.9 676.2L438.9 676.2L436.9 676.2L434.9 676.2L432.9 676.2L430.9 676.2L428.9 676.2L427.0 676.2L425.0 676.2L423.0 676.2L421.0 676.2L419.0 676.2L417.0 676.2L415.0 676.2L413.0 676.2L411.1 676.2L409.1 676.2L407.1 676.2L405.1 676.2L403.1 676.2L401.1 676.2L399.1 676.2L397.1 676.2L395.1 676.2L393.2 676.2L391.2 676.2L389.2 676.2L387.2 676.2L385.2 676.2L383.2 676.2L381.2 676.2L379.2 676.2L377.2 676.2L375.3 676.2L373.3 676.2L371.3 676.2L369.3 676.2L367.3 676.2L365.3 676.2L363.3 676.2L361.3 676.2L359.3 676.2L357.4 676.2L355.4 676.2L353.4 676.2L351.4 676.2L349.4 676.2L347.4 676.2L345.4 676.2L343.4 676.2L341.4 676.2L339.5 676.2L337.5 676.2L335.5 676.2L333.5 676.2L331.5 676.2L329.5 676.2L327.5 676.2L325.5 676.2L323.5 676.2L321.6 676.2L319.6 676.2L317.6 676.2L315.6 676.2L313.6 676.2L311.6 676.2L309.6 676.2L307.6 676.2L305.6 676.2L303.7 676.2L301.7 676.2L299.7 676.2L297.7 676.2L295.7 676.2L293.7 676.2L291.7 676.2L289.7 676.2L287.7 676.2L285.8 676.2L283.8 676.2L281.8 676.2L279.8 676.2L277.8 676.2L275.8 676.2L273.8 676.2L271.8 676.2L269.8 676.2L267.9 676.2L265.9 676.2L263.9 676.2L261.9 676.2L259.9 676.2"/>
<path d="M259.9 676.2L261.3 672.7L263.2 671.4L266.1 671.1L269.9 668.4L274.6 663.3L278.6 659.8L282.0 658.1L288.4 656.6L297.8 655.5L304.3 656.3L308.1 658.9L309.3 659.5L307.9 657.9L307.3 656.3L307.5 654.6L308.6 652.1L310.7 648.6L315.4 646.9L322.6 646.7L326.9 647.9L328.5 650.3L329.0 652.2L328.4 653.5L328.8 654.3L330.2 654.6L331.3 653.5L332.2 650.8L333.4 650.2L335.0 651.8L335.8 653.5L335.8 655.5L336.0 653.3L336.3 646.8L336.9 642.8L337.8 641.2L341.2 640.6L347.0 640.9L351.8 643.2L355.6 647.5L358.5 650.0L360.4 650.8L359.1 648.6L354.4 643.5L350.4 640.4L347.1 639.3L345.0 638.1L344.3 636.8L344.0 634.0L344.0 629.6L342.7 627.1L340.1 626.5L338.8 625.3L338.8 623.6L340.4 622.1L343.4 620.9L344.9 619.7L345.0 618.5L343.6 615.7L340.9 611.4L339.0 606.2L337.9 600.3L337.8 597.1L338.8 596.8L339.0 594.3L338.5 589.7L335.8 585.8L331.0 582.6L329.0 577.7L329.7 570.9L329.6 566.1L328.8 563.3L328.6 557.7L329.0 549.4L331.8 546.2L336.8 548.2L340.4 547.0L342.6 542.7L344.5 540.0L346.3 538.9L347.8 539.2L349.1 540.9L350.0 538.9L350.6 533.3L349.6 530.4L347.0 530.3L344.6 532.9L342.4 538.2L339.8 541.4L336.8 542.5L334.3 542.3L332.3 540.6L332.1 537.7L333.7 533.5L335.4 530.3L337.3 528.0L342.3 526.2L350.4 525.1L357.1 520.8L362.4 513.3L367.8 508.1L373.5 505.2L376.7 503.8L377.5 503.7L377.0 505.3L375.4 508.6L375.0 511.3L375.9 513.4L376.3 516.3L376.2 520.1L375.0 524.2L372.7 528.7L371.5 534.4L371.4 541.2L372.4 545.6L374.4 547.4L377.2 548.3L380.8 548.2L382.9 548.9L383.7 550.3L384.0 551.8L383.7 553.3L382.1 555.5L379.4 558.3L376.8 559.2L374.4 558.4L372.2 561.4L370.3 568.2L368.0 571.9L365.2 572.3L364.4 573.2L365.6 574.6L364.0 577.7L359.7 582.4L358.0 586.8L358.8 590.7L358.1 594.7L355.9 598.6L356.0 600.9L358.4 601.6L359.8 603.6L360.4 607.0L362.0 609.8L364.8 612.1L366.2 614.0L366.3 615.6L365.5 617.3L363.9 619.2L364.5 620.0L367.2 619.7L368.9 620.3L369.6 621.6L370.7 622.1L372.2 621.6L374.7 622.3L378.4 624.4L381.7 624.9L384.5 623.9L386.1 624.2L386.6 625.8L385.6 628.4L383.1 631.9L382.1 634.2L382.5 635.3L385.4 636.4L390.8 637.5L395.5 636.4L399.5 633.0L403.0 631.1L406.1 630.7L410.0 628.0L414.6 622.9L419.2 620.8L423.7 621.8L428.0 624.5L432.2 629.1L435.6 631.3L438.4 631.1L440.9 634.0L443.1 639.9L447.4 644.3L453.7 647.0L456.7 646.8L456.4 643.7L453.2 641.7L446.9 640.8L443.3 638.2L442.3 634.0L444.6 633.6L450.1 637.0L461.8 635.7L479.7 629.5L490.5 624.1L494.2 619.6L499.6 615.8L506.6 612.8L514.1 610.4L522.3 608.6L527.6 607.6L530.0 607.6L533.3 608.9L537.6 611.5L538.2 612.3L535.0 611.3L534.5 613.5L536.9 618.9L538.9 622.1L540.5 623.1L544.2 623.5L549.8 623.2L554.9 621.0L559.4 616.7L562.2 612.1L563.4 607.2L566.1 604.4L570.2 603.9L573.7 602.4L576.6 599.7L579.6 595.8L583.0 590.6L585.1 586.1L586.1 582.3L586.2 582.8L585.4 587.5L582.8 593.0L578.5 599.4L579.2 603.0L585.1 603.8L588.3 599.7L588.8 590.7L588.2 583.0L586.4 576.7L585.4 566.2L585.1 551.5L585.2 542.4L585.6 539.0L587.1 535.5L589.9 532.0L591.8 527.4L592.9 521.9L594.8 516.8L597.5 512.2L602.9 508.5L611.1 505.6L615.7 505.4L616.6 507.8L619.5 511.5L624.4 516.5L627.6 521.2L629.0 525.5L631.6 528.7L635.2 530.9L638.4 531.6L641.2 530.9L644.8 528.4L649.3 523.9L651.2 516.8L650.4 506.9L651.1 496.6L653.3 485.9L653.5 480.3L651.6 479.8L649.5 480.6L647.3 482.8L644.5 483.0L641.1 481.2L638.1 477.5L635.5 471.8L635.1 467.7L636.8 465.3L636.7 464.0L635.0 464.0L633.7 462.7L633.0 460.2L633.1 458.1L633.9 456.6L634.2 454.0L634.0 450.2L636.8 447.3L642.7 445.5L645.5 443.8L645.2 442.2L646.6 440.4L649.9 438.5L656.8 437.0L667.4 436.1L673.0 434.4L673.6 432.1L685.8 433.2L709.5 437.6L722.2 438.4L723.9 435.7L724.7 432.1L724.6 427.6L726.0 426.2L728.7 428.0L731.0 427.3L732.8 424.2L735.9 422.9L740.1 423.3L743.3 421.8L745.3 418.4L751.1 417.9L760.8 420.5L765.9 420.9L766.4 419.2L764.4 416.0L759.9 411.3L754.4 408.9L747.9 409.0L742.6 407.2L738.4 403.5L735.5 400.0L734.0 396.7L733.9 395.5L735.2 396.5L736.0 395.8L736.2 393.4L735.7 391.5L734.3 390.2L728.4 391.6L718.0 395.9L711.5 397.3L708.9 395.7L704.3 396.2L697.7 398.9L694.5 398.0L694.8 393.8L694.1 393.7L692.2 397.7L689.1 399.2L684.9 398.2L683.2 399.0L684.0 401.7L683.0 403.8L680.3 405.3L678.4 405.4L677.4 404.0L671.6 405.6L661.1 410.0L655.1 413.1L653.6 414.9L647.9 416.2L638.2 416.9L631.1 418.9L626.7 422.3L624.2 423.9L623.7 423.7L624.5 421.6L626.9 417.8L626.6 414.0L623.8 410.2L621.5 409.8L619.9 412.9L617.7 414.7L614.8 415.2L613.3 414.3L613.1 411.7L613.7 409.7L615.2 408.3L615.5 407.0L614.8 406.0L614.8 404.5L615.5 402.5L612.2 400.2L604.9 397.7L601.1 395.5L600.6 393.8L599.4 393.5L597.5 394.8L595.6 394.7L593.9 393.4L592.6 389.0L591.9 381.5L592.3 374.4L593.8 368.0L594.5 362.6L594.4 358.4L594.7 356.3L595.3 356.3L595.2 355.6L594.6 354.2L594.8 353.1L595.8 352.3L594.6 347.7L591.2 339.3L589.9 332.1L590.7 325.9L590.3 321.4L588.5 318.5L587.3 314.8L586.7 310.3L588.2 303.6L591.9 294.7L594.6 290.1L596.4 290.0L596.7 288.1L595.7 284.5L599.0 281.5L606.7 279.1L610.2 276.6L609.4 273.7L609.6 272.3L610.6 272.2L611.0 271.4L610.7 270.0L610.9 269.5L611.7 269.8L612.8 268.2L614.1 264.7L620.1 258.5L630.7 249.7L639.4 239.8L646.1 229.0L650.9 220.2L653.7 213.6L657.0 209.3L660.8 207.3L664.4 206.6L667.8 207.2L669.3 206.4L668.7 204.3L669.1 202.5L670.5 201.2L670.7 198.9L669.5 195.7L669.4 190.2L670.3 182.2L667.4 175.9L660.7 171.3L656.9 167.9L656.0 165.8L655.7 163.6L656.2 161.1L655.3 160.8L653.1 162.7L648.5 163.1L641.4 161.9L634.9 162.5L629.0 164.7L624.4 164.2L620.8 160.9L618.0 160.2L615.9 162.1L614.2 162.2L612.9 160.5L611.4 162.9L610.0 169.3L608.4 172.3L606.8 172.0L606.2 172.5L606.8 173.9L606.0 174.9L603.8 175.4L602.4 176.9L602.0 179.5L600.3 181.0L597.1 181.4L595.4 182.2L594.9 183.3L595.2 185.1L596.0 187.4L595.5 187.9L593.5 186.6L593.3 188.2L594.9 192.7L593.6 198.7L589.2 206.2L589.0 213.9L592.8 221.9L592.2 229.2L587.2 235.7L583.4 242.5L580.9 249.6L575.4 256.0L567.0 261.7L561.8 266.3L559.9 269.5L557.1 271.0L553.5 270.7L550.0 273.2L546.9 278.5L543.1 281.8L538.9 283.1L536.4 285.1L535.6 287.6L534.2 289.6L532.0 291.0L531.9 291.9L533.8 292.0L534.5 293.1L534.1 295.2L532.5 297.3L529.6 299.7L526.7 299.9L523.8 298.1L522.8 298.8L523.7 302.1L523.9 304.4L523.1 305.8L523.5 307.1L524.8 308.4L523.5 310.6L519.6 313.8L516.4 315.3L513.7 315.1L512.6 316.3L513.1 319.1L514.4 321.5L516.4 323.7L516.8 325.5L515.6 326.9L514.3 330.8L513.0 337.2L512.7 342.2L513.6 346.1L512.8 347.5L510.1 346.7L508.4 347.8L507.8 351.0L508.0 361.6L509.2 379.6L511.5 389.3L514.9 390.8L517.0 392.4L517.6 394.3L519.4 394.7L522.4 393.6L524.9 394.9L526.9 398.5L529.9 401.9L533.8 405.0L535.7 407.6L535.5 409.6L536.6 411.3L539.1 412.8L541.4 416.0L543.4 421.0L544.3 424.2L544.1 425.6L539.1 430.5L529.2 438.9L524.3 443.1"/>
</g>
<a id="mk0" class="mk-grp" xlink:href="Museen/Birka-Wikingerstadt_Bjoerko.md" href="Museen/Birka-Wikingerstadt_Bjoerko.md" target="_top"><title>Birka – Die Wikingerstadt</title><circle cx="507.9" cy="442.9" r="13" fill="transparent"/><g class="mk-disc"><circle class="mk-disc-fill" cx="507.9" cy="442.9" r="7.00"/><circle class="mk-ring" cx="507.9" cy="442.9" r="6.75"/></g><g class="mk"><circle class="mk-core" cx="507.9" cy="442.9" r="6.50"/></g></a>
<a id="mk1" class="mk-grp" xlink:href="Museen/Bunge-Museum.md" href="Museen/Bunge-Museum.md" target="_top"><title>Bunge-Museum</title><circle cx="545.3" cy="499.5" r="13" fill="transparent"/><g class="mk-disc"><circle class="mk-disc-fill" cx="545.3" cy="499.5" r="7.00"/><circle class="mk-ring" cx="545.3" cy="499.5" r="6.75"/></g><g class="mk"><circle class="mk-core" cx="545.3" cy="499.5" r="6.50"/></g></a>
<a id="mk2" class="mk-grp" xlink:href="Museen/Danevirke-Museum_Dannewerk.md" href="Museen/Danevirke-Museum_Dannewerk.md" target="_top"><title>Danevirke Museum</title><circle cx="348.2" cy="630.2" r="13" fill="transparent"/><g class="mk-disc"><circle class="mk-disc-fill" cx="348.2" cy="630.2" r="7.00"/><circle class="mk-ring" cx="348.2" cy="630.2" r="6.75"/></g><g class="mk"><circle class="mk-core" cx="348.2" cy="630.2" r="6.50"/></g></a>
<a id="mk3" class="mk-grp" xlink:href="Museen/Dublinia_Dublin.md" href="Museen/Dublinia_Dublin.md" target="_top"><title>Dublinia</title><circle cx="42.4" cy="658.0" r="13" fill="transparent"/><g class="mk-disc"><circle class="mk-disc-fill" cx="42.4" cy="658.0" r="7.00"/><circle class="mk-ring" cx="42.4" cy="658.0" r="6.75"/></g><g class="mk"><circle class="mk-core" cx="42.4" cy="658.0" r="6.50"/></g></a>
<a id="mk4" class="mk-grp" xlink:href="Museen/Gamla-Uppsala-Museum.md" href="Museen/Gamla-Uppsala-Museum.md" target="_top"><title>Gamla Uppsala Museum</title><circle cx="517.4" cy="420.7" r="13" fill="transparent"/><g class="mk-disc"><circle class="mk-disc-fill" cx="517.4" cy="420.7" r="7.00"/><circle class="mk-ring" cx="517.4" cy="420.7" r="6.75"/></g><g class="mk"><circle class="mk-core" cx="517.4" cy="420.7" r="6.50"/></g></a>
<a id="mk5" class="mk-grp" xlink:href="Museen/Geschichtszentrum-Nordvegen_Avaldsnes.md" href="Museen/Geschichtszentrum-Nordvegen_Avaldsnes.md" target="_top"><title>Geschichtszentrum Nordvegen</title><circle cx="272.3" cy="442.3" r="13" fill="transparent"/><g class="mk-disc"><circle class="mk-disc-fill" cx="272.3" cy="442.3" r="7.00"/><circle class="mk-ring" cx="272.3" cy="442.3" r="6.75"/></g><g class="mk"><circle class="mk-core" cx="272.3" cy="442.3" r="6.50"/></g></a>
<a id="mk6" class="mk-grp" xlink:href="Museen/Gotlands-Museum_Visby.md" href="Museen/Gotlands-Museum_Visby.md" target="_top"><title>Gotlands Museum</title><circle cx="530.7" cy="507.6" r="13" fill="transparent"/><g class="mk-disc"><circle class="mk-disc-fill" cx="530.7" cy="507.6" r="7.00"/><circle class="mk-ring" cx="530.7" cy="507.6" r="6.75"/></g><g class="mk"><circle class="mk-core" cx="530.7" cy="507.6" r="6.50"/></g></a>
<a id="mk7" class="mk-grp" xlink:href="Museen/Historisches-Museum_Stockholm.md" href="Museen/Historisches-Museum_Stockholm.md" target="_top"><title>Historisches Museum Stockholm</title><circle cx="537.9" cy="442.9" r="13" fill="transparent"/><g class="mk-disc"><circle class="mk-disc-fill" cx="537.9" cy="442.9" r="7.00"/><circle class="mk-ring" cx="537.9" cy="442.9" r="6.75"/></g><g class="mk"><circle class="mk-core" cx="537.9" cy="442.9" r="6.50"/></g></a>
<a id="mk8" class="mk-grp" xlink:href="Museen/Jorvik_Viking_Centre_York.md" href="Museen/Jorvik_Viking_Centre_York.md" target="_top"><title>JORVIK Viking Centre</title><circle cx="145.5" cy="637.9" r="13" fill="transparent"/><g class="mk-disc"><circle class="mk-disc-fill" cx="145.5" cy="637.9" r="7.00"/><circle class="mk-ring" cx="145.5" cy="637.9" r="6.75"/></g><g class="mk"><circle class="mk-core" cx="145.5" cy="637.9" r="6.50"/></g></a>
<a id="mk9" class="mk-grp" xlink:href="Museen/Kulturhistorisches-Museum_Oslo.md" href="Museen/Kulturhistorisches-Museum_Oslo.md" target="_top"><title>Kulturhistorisches Museum Oslo</title><circle cx="386.0" cy="416.2" r="13" fill="transparent"/><g class="mk-disc"><circle class="mk-disc-fill" cx="386.0" cy="416.2" r="7.00"/><circle class="mk-ring" cx="386.0" cy="416.2" r="6.75"/></g><g class="mk"><circle class="mk-core" cx="386.0" cy="416.2" r="6.50"/></g></a>
<a id="mk10" class="mk-grp" xlink:href="Museen/Land-der-Legenden_Lejre.md" href="Museen/Land-der-Legenden_Lejre.md" target="_top"><title>Land der Legenden</title><circle cx="390.9" cy="577.2" r="13" fill="transparent"/><g class="mk-disc"><circle class="mk-disc-fill" cx="390.9" cy="577.2" r="7.00"/><circle class="mk-ring" cx="390.9" cy="577.2" r="6.75"/></g><g class="mk"><circle class="mk-core" cx="390.9" cy="577.2" r="6.50"/></g></a>
<a id="mk11" class="mk-grp" xlink:href="Museen/Lejre-Museum.md" href="Museen/Lejre-Museum.md" target="_top"><title>Lejre Museum</title><circle cx="416.6" cy="583.1" r="13" fill="transparent"/><g class="mk-disc"><circle class="mk-disc-fill" cx="416.6" cy="583.1" r="7.00"/><circle class="mk-ring" cx="416.6" cy="583.1" r="6.75"/></g><g class="mk"><circle class="mk-core" cx="416.6" cy="583.1" r="6.50"/></g></a>
<a id="mk12" class="mk-grp" xlink:href="Museen/Lofotr-Wikingermuseum_Borg.md" href="Museen/Lofotr-Wikingermuseum_Borg.md" target="_top"><title>Lofotr Wikingermuseum</title><circle cx="440.3" cy="38.8" r="13" fill="transparent"/><g class="mk-disc"><circle class="mk-disc-fill" cx="440.3" cy="38.8" r="7.00"/><circle class="mk-ring" cx="440.3" cy="38.8" r="6.75"/></g><g class="mk"><circle class="mk-core" cx="440.3" cy="38.8" r="6.50"/></g></a>
<a id="mk13" class="mk-grp" xlink:href="Museen/Museum-der-Wikingerzeit_Oslo.md" href="Museen/Museum-der-Wikingerzeit_Oslo.md" target="_top"><title>Museum der Wikingerzeit</title><circle cx="373.6" cy="424.5" r="13" fill="transparent"/><g class="mk-disc"><circle class="mk-disc-fill" cx="373.6" cy="424.5" r="7.00"/><circle class="mk-ring" cx="373.6" cy="424.5" r="6.75"/></g><g class="mk"><circle class="mk-core" cx="373.6" cy="424.5" r="6.50"/></g></a>
<a id="mk14" class="mk-grp" xlink:href="Museen/Nationales-Kulturzentrum-Stiklestad.md" href="Museen/Nationales-Kulturzentrum-Stiklestad.md" target="_top"><title>Nationales Kulturzentrum Stiklestad</title><circle cx="396.9" cy="256.1" r="13" fill="transparent"/><g class="mk-disc"><circle class="mk-disc-fill" cx="396.9" cy="256.1" r="7.00"/><circle class="mk-ring" cx="396.9" cy="256.1" r="6.75"/></g><g class="mk"><circle class="mk-core" cx="396.9" cy="256.1" r="6.50"/></g></a>
<a id="mk15" class="mk-grp" xlink:href="Museen/Schloss-Gottorf_Schleswig.md" href="Museen/Schloss-Gottorf_Schleswig.md" target="_top"><title>Museumsinsel Schloss Gottorf</title><circle cx="361.0" cy="606.2" r="13" fill="transparent"/><g class="mk-disc"><circle class="mk-disc-fill" cx="361.0" cy="606.2" r="7.00"/><circle class="mk-ring" cx="361.0" cy="606.2" r="6.75"/></g><g class="mk"><circle class="mk-core" cx="361.0" cy="606.2" r="6.50"/></g></a>
<a id="mk16" class="mk-grp" xlink:href="Museen/Staatliches-Historisches-Museum_Moskau.md" href="Museen/Staatliches-Historisches-Museum_Moskau.md" target="_top"><title>Staatliches Historisches Museum Moskau</title><circle cx="914.6" cy="575.7" r="13" fill="transparent"/><g class="mk-disc"><circle class="mk-disc-fill" cx="914.6" cy="575.7" r="7.00"/><circle class="mk-ring" cx="914.6" cy="575.7" r="6.75"/></g><g class="mk"><circle class="mk-core" cx="914.6" cy="575.7" r="6.50"/></g></a>
<a id="mk17" class="mk-grp" xlink:href="Museen/The_Viking_Museum_Stockholm.md" href="Museen/The_Viking_Museum_Stockholm.md" target="_top"><title>The Viking Museum (Vikingaliv)</title><circle cx="522.9" cy="442.9" r="13" fill="transparent"/><g class="mk-disc"><circle class="mk-disc-fill" cx="522.9" cy="442.9" r="7.00"/><circle class="mk-ring" cx="522.9" cy="442.9" r="6.75"/></g><g class="mk"><circle class="mk-core" cx="522.9" cy="442.9" r="6.50"/></g></a>
<a id="mk18" class="mk-grp" xlink:href="Museen/Wikinger-Museum-Haithabu_Schleswig.md" href="Museen/Wikinger-Museum-Haithabu_Schleswig.md" target="_top"><title>Wikinger Museum Haithabu</title><circle cx="360.1" cy="621.2" r="13" fill="transparent"/><g class="mk-disc"><circle class="mk-disc-fill" cx="360.1" cy="621.2" r="7.00"/><circle class="mk-ring" cx="360.1" cy="621.2" r="6.75"/></g><g class="mk"><circle class="mk-core" cx="360.1" cy="621.2" r="6.50"/></g></a>
<a id="mk19" class="mk-grp" xlink:href="Museen/Wikingerburg-Trelleborg_Slagelse.md" href="Museen/Wikingerburg-Trelleborg_Slagelse.md" target="_top"><title>Wikingerburg Trelleborg</title><circle cx="390.3" cy="592.1" r="13" fill="transparent"/><g class="mk-disc"><circle class="mk-disc-fill" cx="390.3" cy="592.1" r="7.00"/><circle class="mk-ring" cx="390.3" cy="592.1" r="6.75"/></g><g class="mk"><circle class="mk-core" cx="390.3" cy="592.1" r="6.50"/></g></a>
<a id="mk20" class="mk-grp" xlink:href="Museen/Wikingermuseum-Foteviken_Hoellviken.md" href="Museen/Wikingermuseum-Foteviken_Hoellviken.md" target="_top"><title>Wikingermuseum Foteviken</title><circle cx="429.9" cy="590.0" r="13" fill="transparent"/><g class="mk-disc"><circle class="mk-disc-fill" cx="429.9" cy="590.0" r="7.00"/><circle class="mk-ring" cx="429.9" cy="590.0" r="6.75"/></g><g class="mk"><circle class="mk-core" cx="429.9" cy="590.0" r="6.50"/></g></a>
<a id="mk21" class="mk-grp" xlink:href="Museen/Wikingermuseum-Ladby.md" href="Museen/Wikingermuseum-Ladby.md" target="_top"><title>Wikingermuseum Ladby</title><circle cx="376.5" cy="585.8" r="13" fill="transparent"/><g class="mk-disc"><circle class="mk-disc-fill" cx="376.5" cy="585.8" r="7.00"/><circle class="mk-ring" cx="376.5" cy="585.8" r="6.75"/></g><g class="mk"><circle class="mk-core" cx="376.5" cy="585.8" r="6.50"/></g></a>
<a id="mk22" class="mk-grp" xlink:href="Museen/Wikingermuseum-Ribe.md" href="Museen/Wikingermuseum-Ribe.md" target="_top"><title>Wikingermuseum Ribe</title><circle cx="341.2" cy="583.2" r="13" fill="transparent"/><g class="mk-disc"><circle class="mk-disc-fill" cx="341.2" cy="583.2" r="7.00"/><circle class="mk-ring" cx="341.2" cy="583.2" r="6.75"/></g><g class="mk"><circle class="mk-core" cx="341.2" cy="583.2" r="6.50"/></g></a>
<a id="mk23" class="mk-grp" xlink:href="Museen/Wikingerschiffsmuseum_Roskilde.md" href="Museen/Wikingerschiffsmuseum_Roskilde.md" target="_top"><title>Wikingerschiffsmuseum Roskilde</title><circle cx="405.4" cy="573.2" r="13" fill="transparent"/><g class="mk-disc"><circle class="mk-disc-fill" cx="405.4" cy="573.2" r="7.00"/><circle class="mk-ring" cx="405.4" cy="573.2" r="6.75"/></g><g class="mk"><circle class="mk-core" cx="405.4" cy="573.2" r="6.50"/></g></a>
<a id="mk24" class="mk-grp" xlink:href="Museen/Wikingerzentrum-Ribe.md" href="Museen/Wikingerzentrum-Ribe.md" target="_top"><title>Wikingerzentrum Ribe</title><circle cx="341.2" cy="598.2" r="13" fill="transparent"/><g class="mk-disc"><circle class="mk-disc-fill" cx="341.2" cy="598.2" r="7.00"/><circle class="mk-ring" cx="341.2" cy="598.2" r="6.75"/></g><g class="mk"><circle class="mk-core" cx="341.2" cy="598.2" r="6.50"/></g></a>
<a id="mk25" class="mk-grp" xlink:href="Museen/Zentrum-der-Slawen-und-Wikinger_Wollin.md" href="Museen/Zentrum-der-Slawen-und-Wikinger_Wollin.md" target="_top"><title>Zentrum der Slawen und Wikinger (Wollin–Jomsburg–Vineta)</title><circle cx="457.5" cy="641.8" r="13" fill="transparent"/><g class="mk-disc"><circle class="mk-disc-fill" cx="457.5" cy="641.8" r="7.00"/><circle class="mk-ring" cx="457.5" cy="641.8" r="6.75"/></g><g class="mk"><circle class="mk-core" cx="457.5" cy="641.8" r="6.50"/></g></a>
<a id="tp0" class="tp" xlink:href="Museen/Birka-Wikingerstadt_Bjoerko.md" href="Museen/Birka-Wikingerstadt_Bjoerko.md" target="_top"><circle cx="507.9" cy="442.9" r="13" fill="transparent"/><g class="mk-disc"><circle class="mk-disc-fill" cx="507.9" cy="442.9" r="7.00"/><circle class="mk-ring" cx="507.9" cy="442.9" r="6.75"/></g><g class="mk"><circle class="mk-core" cx="507.9" cy="442.9" r="6.50"/></g><text class="mk-lbl" x="521.9" y="446.9" text-anchor="start">Birka – Die Wikingerstadt</text></a>
<a id="tp1" class="tp" xlink:href="Museen/Bunge-Museum.md" href="Museen/Bunge-Museum.md" target="_top"><circle cx="545.3" cy="499.5" r="13" fill="transparent"/><g class="mk-disc"><circle class="mk-disc-fill" cx="545.3" cy="499.5" r="7.00"/><circle class="mk-ring" cx="545.3" cy="499.5" r="6.75"/></g><g class="mk"><circle class="mk-core" cx="545.3" cy="499.5" r="6.50"/></g><text class="mk-lbl" x="559.3" y="503.5" text-anchor="start">Bunge-Museum</text></a>
<a id="tp2" class="tp" xlink:href="Museen/Danevirke-Museum_Dannewerk.md" href="Museen/Danevirke-Museum_Dannewerk.md" target="_top"><circle cx="348.2" cy="630.2" r="13" fill="transparent"/><g class="mk-disc"><circle class="mk-disc-fill" cx="348.2" cy="630.2" r="7.00"/><circle class="mk-ring" cx="348.2" cy="630.2" r="6.75"/></g><g class="mk"><circle class="mk-core" cx="348.2" cy="630.2" r="6.50"/></g><text class="mk-lbl" x="362.2" y="634.2" text-anchor="start">Danevirke Museum</text></a>
<a id="tp3" class="tp" xlink:href="Museen/Dublinia_Dublin.md" href="Museen/Dublinia_Dublin.md" target="_top"><circle cx="42.4" cy="658.0" r="13" fill="transparent"/><g class="mk-disc"><circle class="mk-disc-fill" cx="42.4" cy="658.0" r="7.00"/><circle class="mk-ring" cx="42.4" cy="658.0" r="6.75"/></g><g class="mk"><circle class="mk-core" cx="42.4" cy="658.0" r="6.50"/></g><text class="mk-lbl" x="56.4" y="662.0" text-anchor="start">Dublinia</text></a>
<a id="tp4" class="tp" xlink:href="Museen/Gamla-Uppsala-Museum.md" href="Museen/Gamla-Uppsala-Museum.md" target="_top"><circle cx="517.4" cy="420.7" r="13" fill="transparent"/><g class="mk-disc"><circle class="mk-disc-fill" cx="517.4" cy="420.7" r="7.00"/><circle class="mk-ring" cx="517.4" cy="420.7" r="6.75"/></g><g class="mk"><circle class="mk-core" cx="517.4" cy="420.7" r="6.50"/></g><text class="mk-lbl" x="531.4" y="424.7" text-anchor="start">Gamla Uppsala Museum</text></a>
<a id="tp5" class="tp" xlink:href="Museen/Geschichtszentrum-Nordvegen_Avaldsnes.md" href="Museen/Geschichtszentrum-Nordvegen_Avaldsnes.md" target="_top"><circle cx="272.3" cy="442.3" r="13" fill="transparent"/><g class="mk-disc"><circle class="mk-disc-fill" cx="272.3" cy="442.3" r="7.00"/><circle class="mk-ring" cx="272.3" cy="442.3" r="6.75"/></g><g class="mk"><circle class="mk-core" cx="272.3" cy="442.3" r="6.50"/></g><text class="mk-lbl" x="286.3" y="446.3" text-anchor="start">Geschichtszentrum Nordvegen</text></a>
<a id="tp6" class="tp" xlink:href="Museen/Gotlands-Museum_Visby.md" href="Museen/Gotlands-Museum_Visby.md" target="_top"><circle cx="530.7" cy="507.6" r="13" fill="transparent"/><g class="mk-disc"><circle class="mk-disc-fill" cx="530.7" cy="507.6" r="7.00"/><circle class="mk-ring" cx="530.7" cy="507.6" r="6.75"/></g><g class="mk"><circle class="mk-core" cx="530.7" cy="507.6" r="6.50"/></g><text class="mk-lbl" x="544.7" y="511.6" text-anchor="start">Gotlands Museum</text></a>
<a id="tp7" class="tp" xlink:href="Museen/Historisches-Museum_Stockholm.md" href="Museen/Historisches-Museum_Stockholm.md" target="_top"><circle cx="537.9" cy="442.9" r="13" fill="transparent"/><g class="mk-disc"><circle class="mk-disc-fill" cx="537.9" cy="442.9" r="7.00"/><circle class="mk-ring" cx="537.9" cy="442.9" r="6.75"/></g><g class="mk"><circle class="mk-core" cx="537.9" cy="442.9" r="6.50"/></g><text class="mk-lbl" x="551.9" y="446.9" text-anchor="start">Historisches Museum Stockholm</text></a>
<a id="tp8" class="tp" xlink:href="Museen/Jorvik_Viking_Centre_York.md" href="Museen/Jorvik_Viking_Centre_York.md" target="_top"><circle cx="145.5" cy="637.9" r="13" fill="transparent"/><g class="mk-disc"><circle class="mk-disc-fill" cx="145.5" cy="637.9" r="7.00"/><circle class="mk-ring" cx="145.5" cy="637.9" r="6.75"/></g><g class="mk"><circle class="mk-core" cx="145.5" cy="637.9" r="6.50"/></g><text class="mk-lbl" x="159.5" y="641.9" text-anchor="start">JORVIK Viking Centre</text></a>
<a id="tp9" class="tp" xlink:href="Museen/Kulturhistorisches-Museum_Oslo.md" href="Museen/Kulturhistorisches-Museum_Oslo.md" target="_top"><circle cx="386.0" cy="416.2" r="13" fill="transparent"/><g class="mk-disc"><circle class="mk-disc-fill" cx="386.0" cy="416.2" r="7.00"/><circle class="mk-ring" cx="386.0" cy="416.2" r="6.75"/></g><g class="mk"><circle class="mk-core" cx="386.0" cy="416.2" r="6.50"/></g><text class="mk-lbl" x="400.0" y="420.2" text-anchor="start">Kulturhistorisches Museum Oslo</text></a>
<a id="tp10" class="tp" xlink:href="Museen/Land-der-Legenden_Lejre.md" href="Museen/Land-der-Legenden_Lejre.md" target="_top"><circle cx="390.9" cy="577.2" r="13" fill="transparent"/><g class="mk-disc"><circle class="mk-disc-fill" cx="390.9" cy="577.2" r="7.00"/><circle class="mk-ring" cx="390.9" cy="577.2" r="6.75"/></g><g class="mk"><circle class="mk-core" cx="390.9" cy="577.2" r="6.50"/></g><text class="mk-lbl" x="404.9" y="581.2" text-anchor="start">Land der Legenden</text></a>
<a id="tp11" class="tp" xlink:href="Museen/Lejre-Museum.md" href="Museen/Lejre-Museum.md" target="_top"><circle cx="416.6" cy="583.1" r="13" fill="transparent"/><g class="mk-disc"><circle class="mk-disc-fill" cx="416.6" cy="583.1" r="7.00"/><circle class="mk-ring" cx="416.6" cy="583.1" r="6.75"/></g><g class="mk"><circle class="mk-core" cx="416.6" cy="583.1" r="6.50"/></g><text class="mk-lbl" x="430.6" y="587.1" text-anchor="start">Lejre Museum</text></a>
<a id="tp12" class="tp" xlink:href="Museen/Lofotr-Wikingermuseum_Borg.md" href="Museen/Lofotr-Wikingermuseum_Borg.md" target="_top"><circle cx="440.3" cy="38.8" r="13" fill="transparent"/><g class="mk-disc"><circle class="mk-disc-fill" cx="440.3" cy="38.8" r="7.00"/><circle class="mk-ring" cx="440.3" cy="38.8" r="6.75"/></g><g class="mk"><circle class="mk-core" cx="440.3" cy="38.8" r="6.50"/></g><text class="mk-lbl" x="454.3" y="42.8" text-anchor="start">Lofotr Wikingermuseum</text></a>
<a id="tp13" class="tp" xlink:href="Museen/Museum-der-Wikingerzeit_Oslo.md" href="Museen/Museum-der-Wikingerzeit_Oslo.md" target="_top"><circle cx="373.6" cy="424.5" r="13" fill="transparent"/><g class="mk-disc"><circle class="mk-disc-fill" cx="373.6" cy="424.5" r="7.00"/><circle class="mk-ring" cx="373.6" cy="424.5" r="6.75"/></g><g class="mk"><circle class="mk-core" cx="373.6" cy="424.5" r="6.50"/></g><text class="mk-lbl" x="387.6" y="428.5" text-anchor="start">Museum der Wikingerzeit</text></a>
<a id="tp14" class="tp" xlink:href="Museen/Nationales-Kulturzentrum-Stiklestad.md" href="Museen/Nationales-Kulturzentrum-Stiklestad.md" target="_top"><circle cx="396.9" cy="256.1" r="13" fill="transparent"/><g class="mk-disc"><circle class="mk-disc-fill" cx="396.9" cy="256.1" r="7.00"/><circle class="mk-ring" cx="396.9" cy="256.1" r="6.75"/></g><g class="mk"><circle class="mk-core" cx="396.9" cy="256.1" r="6.50"/></g><text class="mk-lbl" x="410.9" y="260.1" text-anchor="start">Nationales Kulturzentrum Stiklestad</text></a>
<a id="tp15" class="tp" xlink:href="Museen/Schloss-Gottorf_Schleswig.md" href="Museen/Schloss-Gottorf_Schleswig.md" target="_top"><circle cx="361.0" cy="606.2" r="13" fill="transparent"/><g class="mk-disc"><circle class="mk-disc-fill" cx="361.0" cy="606.2" r="7.00"/><circle class="mk-ring" cx="361.0" cy="606.2" r="6.75"/></g><g class="mk"><circle class="mk-core" cx="361.0" cy="606.2" r="6.50"/></g><text class="mk-lbl" x="375.0" y="610.2" text-anchor="start">Museumsinsel Schloss Gottorf</text></a>
<a id="tp16" class="tp" xlink:href="Museen/Staatliches-Historisches-Museum_Moskau.md" href="Museen/Staatliches-Historisches-Museum_Moskau.md" target="_top"><circle cx="914.6" cy="575.7" r="13" fill="transparent"/><g class="mk-disc"><circle class="mk-disc-fill" cx="914.6" cy="575.7" r="7.00"/><circle class="mk-ring" cx="914.6" cy="575.7" r="6.75"/></g><g class="mk"><circle class="mk-core" cx="914.6" cy="575.7" r="6.50"/></g><text class="mk-lbl" x="900.6" y="579.7" text-anchor="end">Staatliches Historisches Museum Moskau</text></a>
<a id="tp17" class="tp" xlink:href="Museen/The_Viking_Museum_Stockholm.md" href="Museen/The_Viking_Museum_Stockholm.md" target="_top"><circle cx="522.9" cy="442.9" r="13" fill="transparent"/><g class="mk-disc"><circle class="mk-disc-fill" cx="522.9" cy="442.9" r="7.00"/><circle class="mk-ring" cx="522.9" cy="442.9" r="6.75"/></g><g class="mk"><circle class="mk-core" cx="522.9" cy="442.9" r="6.50"/></g><text class="mk-lbl" x="536.9" y="446.9" text-anchor="start">The Viking Museum (Vikingaliv)</text></a>
<a id="tp18" class="tp" xlink:href="Museen/Wikinger-Museum-Haithabu_Schleswig.md" href="Museen/Wikinger-Museum-Haithabu_Schleswig.md" target="_top"><circle cx="360.1" cy="621.2" r="13" fill="transparent"/><g class="mk-disc"><circle class="mk-disc-fill" cx="360.1" cy="621.2" r="7.00"/><circle class="mk-ring" cx="360.1" cy="621.2" r="6.75"/></g><g class="mk"><circle class="mk-core" cx="360.1" cy="621.2" r="6.50"/></g><text class="mk-lbl" x="374.1" y="625.2" text-anchor="start">Wikinger Museum Haithabu</text></a>
<a id="tp19" class="tp" xlink:href="Museen/Wikingerburg-Trelleborg_Slagelse.md" href="Museen/Wikingerburg-Trelleborg_Slagelse.md" target="_top"><circle cx="390.3" cy="592.1" r="13" fill="transparent"/><g class="mk-disc"><circle class="mk-disc-fill" cx="390.3" cy="592.1" r="7.00"/><circle class="mk-ring" cx="390.3" cy="592.1" r="6.75"/></g><g class="mk"><circle class="mk-core" cx="390.3" cy="592.1" r="6.50"/></g><text class="mk-lbl" x="404.3" y="596.1" text-anchor="start">Wikingerburg Trelleborg</text></a>
<a id="tp20" class="tp" xlink:href="Museen/Wikingermuseum-Foteviken_Hoellviken.md" href="Museen/Wikingermuseum-Foteviken_Hoellviken.md" target="_top"><circle cx="429.9" cy="590.0" r="13" fill="transparent"/><g class="mk-disc"><circle class="mk-disc-fill" cx="429.9" cy="590.0" r="7.00"/><circle class="mk-ring" cx="429.9" cy="590.0" r="6.75"/></g><g class="mk"><circle class="mk-core" cx="429.9" cy="590.0" r="6.50"/></g><text class="mk-lbl" x="443.9" y="594.0" text-anchor="start">Wikingermuseum Foteviken</text></a>
<a id="tp21" class="tp" xlink:href="Museen/Wikingermuseum-Ladby.md" href="Museen/Wikingermuseum-Ladby.md" target="_top"><circle cx="376.5" cy="585.8" r="13" fill="transparent"/><g class="mk-disc"><circle class="mk-disc-fill" cx="376.5" cy="585.8" r="7.00"/><circle class="mk-ring" cx="376.5" cy="585.8" r="6.75"/></g><g class="mk"><circle class="mk-core" cx="376.5" cy="585.8" r="6.50"/></g><text class="mk-lbl" x="390.5" y="589.8" text-anchor="start">Wikingermuseum Ladby</text></a>
<a id="tp22" class="tp" xlink:href="Museen/Wikingermuseum-Ribe.md" href="Museen/Wikingermuseum-Ribe.md" target="_top"><circle cx="341.2" cy="583.2" r="13" fill="transparent"/><g class="mk-disc"><circle class="mk-disc-fill" cx="341.2" cy="583.2" r="7.00"/><circle class="mk-ring" cx="341.2" cy="583.2" r="6.75"/></g><g class="mk"><circle class="mk-core" cx="341.2" cy="583.2" r="6.50"/></g><text class="mk-lbl" x="355.2" y="587.2" text-anchor="start">Wikingermuseum Ribe</text></a>
<a id="tp23" class="tp" xlink:href="Museen/Wikingerschiffsmuseum_Roskilde.md" href="Museen/Wikingerschiffsmuseum_Roskilde.md" target="_top"><circle cx="405.4" cy="573.2" r="13" fill="transparent"/><g class="mk-disc"><circle class="mk-disc-fill" cx="405.4" cy="573.2" r="7.00"/><circle class="mk-ring" cx="405.4" cy="573.2" r="6.75"/></g><g class="mk"><circle class="mk-core" cx="405.4" cy="573.2" r="6.50"/></g><text class="mk-lbl" x="419.4" y="577.2" text-anchor="start">Wikingerschiffsmuseum Roskilde</text></a>
<a id="tp24" class="tp" xlink:href="Museen/Wikingerzentrum-Ribe.md" href="Museen/Wikingerzentrum-Ribe.md" target="_top"><circle cx="341.2" cy="598.2" r="13" fill="transparent"/><g class="mk-disc"><circle class="mk-disc-fill" cx="341.2" cy="598.2" r="7.00"/><circle class="mk-ring" cx="341.2" cy="598.2" r="6.75"/></g><g class="mk"><circle class="mk-core" cx="341.2" cy="598.2" r="6.50"/></g><text class="mk-lbl" x="355.2" y="602.2" text-anchor="start">Wikingerzentrum Ribe</text></a>
<a id="tp25" class="tp" xlink:href="Museen/Zentrum-der-Slawen-und-Wikinger_Wollin.md" href="Museen/Zentrum-der-Slawen-und-Wikinger_Wollin.md" target="_top"><circle cx="457.5" cy="641.8" r="13" fill="transparent"/><g class="mk-disc"><circle class="mk-disc-fill" cx="457.5" cy="641.8" r="7.00"/><circle class="mk-ring" cx="457.5" cy="641.8" r="6.75"/></g><g class="mk"><circle class="mk-core" cx="457.5" cy="641.8" r="6.50"/></g><text class="mk-lbl" x="471.5" y="645.8" text-anchor="start">Zentrum der Slawen und Wikinger (Wollin–Jomsburg–Vineta)</text></a>
<style>#mk0:hover ~ #tp0, #mk1:hover ~ #tp1, #mk2:hover ~ #tp2, #mk3:hover ~ #tp3, #mk4:hover ~ #tp4, #mk5:hover ~ #tp5, #mk6:hover ~ #tp6, #mk7:hover ~ #tp7, #mk8:hover ~ #tp8, #mk9:hover ~ #tp9, #mk10:hover ~ #tp10, #mk11:hover ~ #tp11, #mk12:hover ~ #tp12, #mk13:hover ~ #tp13, #mk14:hover ~ #tp14, #mk15:hover ~ #tp15, #mk16:hover ~ #tp16, #mk17:hover ~ #tp17, #mk18:hover ~ #tp18, #mk19:hover ~ #tp19, #mk20:hover ~ #tp20, #mk21:hover ~ #tp21, #mk22:hover ~ #tp22, #mk23:hover ~ #tp23, #mk24:hover ~ #tp24, #mk25:hover ~ #tp25, .tp:hover { visibility: visible; opacity: 1; --on: 1; --fc: var(--md-accent-fg-color, var(--mk-accent)); }</style>
</svg>