<svg xmlns="http://www.w3.org/2000/svg" version="1.1" preserveAspectRatio="xMinYMin meet" width="38.29404830932618mm" height="35.526832580566406mm" viewBox="51.5815086364746 91.55970764160156 38.29404830932618 35.526832580566406">
<path transform="matrix(1,0,0,1,8.88178e-16,-7.10543e-15)" stroke="none" fill="currentColor" d="M79.25699785868596,126.97107276691868C79.25699785868596,126.97107276691868 62.21358444882766,127.34330653575908 60.81798444882763,126.75130653575911C57.79398444882766,125.9393065357592 55.01478444882761,124.03930653575917 53.21928444882765,121.46130653575905C51.55788444882765,118.94030653575908 50.61525189690603,113.98767565525085 53.10037920230553,111.19081746856C55.585506507705034,108.39395928186914 58.26682807405712,107.23684912949543 58.26682807405712,107.23684912949543C56.199242198623814,102.28671245925501 55.97334418455809,101.32936942826504 56.72448444882768,97.78530653575912C57.475624713097204,94.2412436432533 59.90739895443083,92.80495809691917 61.544881671079835,92.26561815590986C62.42961054107248,91.97421378766866 64.21270134209453,91.47322660059288 66.00360359186084,91.5724599066986C67.52746699721662,91.65488193445269 69.06608513740288,92.3324078737205 69.7440303056612,92.7370266689385C71.21877998749895,93.61720321927285 73.89468444882768,96.30630653575909 73.28368444882761,99.45330653575918C72.67268444882764,102.60130653575915 71.25688444882762,106.56230653575906 68.59608444882763,109.10030653575912C66.86068444882766,110.92830653575908 64.0753783628506,112.52117922644989 64.0753783628506,112.52117922644989Q66.19263690314689,118.0453131888722 67.03985440677816,119.23975287552399Q67.67048444882765,115.33130653575915 68.9098844488276,114.2153065357591C69.82408444882762,112.47930653575914 71.5727844488276,111.47330653575904 72.82908444882764,110.04630653575907C73.54858444882765,109.05430653575918 73.36195940679049,108.08427756226982 73.28905940679049,106.93427756226984C73.2387594067905,106.14027756226974 72.94525006495597,104.71898990828065 73.15515006495598,103.96498990828066C73.5057500649559,101.78498990828064 75.99052837711068,100.79609873922033 75.99052837711068,100.79609873922033C75.67851812769783,99.62932276850731 77.15596970322069,98.68261486344477 77.15596970322069,98.68261486344477C78.07954376849787,97.35938888649099 78.07954376849787,97.35938888649099 78.12373533424169,95.83181399143317C78.79016787267386,95.90299503692661 80.36994220109352,101.3164618405462 80.36994220109352,101.3164618405462C81.69148806358011,102.4175804475485 81.69148806358011,102.4175804475485 82.56666077679432,103.63343828733278C83.44183349000855,104.84929612711706 83.87063305395039,106.17989319968333 83.87063305395039,106.17989319968333C83.87063305395039,106.17989319968333 84.24649378386331,106.70124596962435 84.80496621686811,107.19942695673282C85.44301235998942,107.76754680452052 86.26247629465925,108.35582684965229 86.04714355567842,108.98133716514282C85.64317995333565,110.15479272765536 83.78700943486717,110.5933476533442 82.1396578897906,110.85778149846485C80.49230634471404,111.1222153435855 79.1286940065571,110.78630554976974 78.81609400655705,110.73030554976972C79.27299400655707,112.1583055497697 79.84888444882766,114.57330653575907 79.44978444882764,116.40830653575907C80.26168444882765,117.44430653575908 80.11996875011585,117.59185552567678 80.91071875011585,117.63885552567682C81.70146875011581,117.68585552567681 82.14851148599425,117.16100724697333 82.61278444882758,116.5963065357591C82.57938444882767,115.37630653575927 83.93738444882764,112.20130653575917 85.71528444882762,114.02630653575916C85.76068444882766,114.96230653575917 86.73048444882764,115.00330653575914 87.76048444882761,115.04830653575918C88.48748444882769,115.07930653575912 89.24448444882762,115.11230653575913 89.72848444882761,115.46130653575906C90.35448444882765,116.89430653575909 88.85348444882757,118.55830653575917 87.74448444882759,119.7883065357591C87.6034844488276,119.94430653575904 87.46848444882764,120.09330653575914 87.3454844488276,120.23430653575919C86.34668444882763,121.44830653575904 83.6505844488276,118.76130653575918 85.29138444882763,117.99330653575915C86.73068444882763,116.63530653575914 84.61735944882764,116.43530653575907 83.85078444882761,117.26230653575905C83.08420944882764,118.08930653575906 82.81432610020207,118.5733965447374 81.62460110020204,121.1853965447374C80.43487610020203,123.79739654473744 79.25699785868596,126.97107276691868 79.25699785868596,126.97107276691868ZM64.9094844488276,102.03630653575914C65.40638444882767,100.28530653575913 64.6761844488276,98.15330653575907 63.44348444882762,97.83530653575909C62.21078444882764,97.51730653575908 61.24374573406256,99.1345720957233 60.74064573406257,100.92957209572333C60.23764573406255,102.72457209572327 61.43169006734887,105.46913095586208 61.43169006734887,105.46913095586208C64.43341135944797,103.5893005282802 64.9094844488276,102.03630653575914 64.9094844488276,102.03630653575914ZM65.4049072084812,123.925501569634C65.4049072084812,123.925501569634 61.564287858228255,114.10594034762242 61.564287858228255,114.10594034762242C60.12040135543431,115.41188850535094 57.97439111152917,118.77746164776853 58.894309882339726,121.06690844556961C59.81422865315031,123.35635524337049 65.4049072084812,123.925501569634 65.4049072084812,123.925501569634Z" fill-rule="evenodd"></path></svg>